<ttFont>
          <CharString index="0">
            -107 callgsubr
            27 -8 26 -23 vhcurveto
            return
          </CharString>
          <CharString index="1">
            -14 rlineto
            -60 callgsubr
            81 -81 callsubr
            -64 14 rlineto
            399 vlineto
            64 -95 callgsubr
            endchar
          </CharString>
          <CharString index="2">
            41 -29 46 -61 32 vhcurveto
            -125 66 rlineto
            -34 18 -18 24 29 vvcurveto
            8 1 9 3 9 vhcurveto
            34 23 39 12 39 hhcurveto
            27 28 -6 -7 20 hvcurveto
            -66 vlineto
            -15 34 0 9 vhcurveto
            21 115 rlineto
            15 -44 -47 11 -43 hhcurveto
            -113 -61 -64 -67 -42 28 -44 51 -28 hvcurveto
            128 -69 rlineto
            36 -20 13 -30 -20 vvcurveto
            -42 -30 -33 -69 -35 -41 8 16 -30 vhcurveto
            72 vlineto
            15 -31 0 -7 -2 -19 -91 -32 -3 vhcurveto
            -23 58 54 -11 51 hhcurveto
            102 77 45 85 hvcurveto
            return
          </CharString>
          <CharString index="3">
            -99 callsubr
            64 -14 rlineto
            -64 callgsubr
            return
          </CharString>
          <CharString index="4">
            648 rmoveto
            -5 -298 20 callgsubr
            -86 -80 callsubr
            18 -62 callsubr
            10 -89 callsubr
            -86 22 5 298 -96 callgsubr
            return
          </CharString>
          <CharString index="5">
            rmoveto
            36 10 98 -96 callsubr
            -77 -97 -66 0 vvcurveto
            return
          </CharString>
          <CharString index="6">
            rmoveto
            128 39 107 62 47 vhcurveto
            13 39 56 11 49 -66 callgsubr
            -104 -140 -139 -106 104 212 hvcurveto
            return
          </CharString>
          <CharString index="7">
            -20 hstemhm
            124 78 hintmask 10110001
            463 -62 callgsubr
            hintmask 01101001
            -103 callgsubr
            hintmask 10110001
            -84 callsubr
            hintmask 00000110
            return
          </CharString>
          <CharString index="8">
            -68 3 -15 -87 callgsubr
            -18 0 -23 -8 hvcurveto
            return
          </CharString>
          <CharString index="9">
            -21 -36 -91 callgsubr
            22 35 9 0 vhcurveto
            0 7 33 29 vvcurveto
            33 -9 29 -27 vhcurveto
            return
          </CharString>
          <CharString index="10">
            rmoveto
            149 vlineto
            129 248 49 16 -23 callgsubr
            21 -17 2 vhcurveto
            -58 -3 -76 -17 callsubr
            18 -5 23 -4 19 -5 -98 -204 rcurveline
            -38 71 -31 63 -37 70 58 14 rcurveline
            15 -2 16 -15 vhcurveto
            -77 -3 rlineto
            -64 3 -6 -87 callgsubr
            -19 19 callsubr
            50 -16 140 -249 rlineto
            -148 vlineto
            -71 -15 rlineto
            -8 0 -23 19 vhcurveto
            89 6 87 -81 callsubr
            endchar
          </CharString>
          <CharString index="11">
            30 67 43 rrcurveto
            4 2 1 5 5 vvcurveto
            20 -20 41 -5 6 vhcurveto
            -95 return
          </CharString>
          <CharString index="12">
            -22 -68 callgsubr
            15 vhcurveto
            return
          </CharString>
          <CharString index="13">
            -87 callgsubr
            -15 19 callsubr
            return
          </CharString>
          <CharString index="14">
            -63 callsubr
            84 -22 rlineto
            -86 callgsubr
            return
          </CharString>
          <CharString index="15">
            518 -102 callsubr
            return
          </CharString>
          <CharString index="16">
            27 -8 26 -23 vhcurveto
            148 hmoveto
            -107 callsubr
            return
          </CharString>
          <CharString index="17">
            -4 vlineto
            -44 -30 -38 -52 -16 vhcurveto
            9 -29 rlineto
            80 16 53 68 70 vvcurveto
            60 -17 49 -29 vhcurveto
            return
          </CharString>
          <CharString index="18">
            -76 callsubr
            23 7 hvcurveto
            return
          </CharString>
          <CharString index="19">
            rmoveto
            -73 callsubr
            -19 callgsubr
            vhcurveto
            -90 callsubr
            endchar
          </CharString>
          <CharString index="20">
            0 -62 -3 vhcurveto
            -99 callsubr
            return
          </CharString>
          <CharString index="21">
            -64 callsubr
            -72 callgsubr
            return
          </CharString>
          <CharString index="22">
            19 7 1 11 -76 callgsubr
            return
          </CharString>
          <CharString index="23">
            -26 -94 rlineto
            -275 hlineto
            9 271 256 13 rlineto
            43 -256 vlineto
            -9 264 265 3 rlineto
            return
          </CharString>
          <CharString index="24">
            -71 callsubr
            138 -121 return
          </CharString>
          <CharString index="25">
            -105 callsubr
            endchar
          </CharString>
          <CharString index="26">
            -6 rlineto
            17 0 23 8 hvcurveto
            return
          </CharString>
          <CharString index="27">
            -95 callsubr
            0 return
          </CharString>
          <CharString index="28">
            -20 hstemhm
            hintmask 11100000
            124 52 rmoveto
            55 163 275 14 63 -43 callgsubr
            0 11 0 108 4 vhcurveto
            87 -26 callgsubr
            -75 22 -232 648 rlineto
            -76 hlineto
            -230 -648 -75 -80 callsubr
            4 4 callgsubr
            -51 callsubr
            98 589 rmoveto
            122 -346 rlineto
            -240 hlineto
            hintmask 00011000
            return
          </CharString>
          <CharString index="29">
            rmoveto
            85 -77 31 -72 -46 -50 -11 -17 -34 vhcurveto
            2 -17 18 -71 0 vvcurveto
            7 31 5 10 hvcurveto
            -2 43 rlineto
            10 22 26 5 25 hhcurveto
            43 40 -20 -53 -69 -53 -52 -44 -39 hvcurveto
            -142 -128 20 -27 rlineto
            286 hlineto
            17 3 5 9 1 hvcurveto
            11 -20 87 -1 -6 -26 0 -17 vhcurveto
            -42 vlineto
            -201 -16 81 62 rlineto
            77 59 75 69 88 vvcurveto
            -243 -285 rmoveto
            22 hlineto
            -9 22 rlineto
            -13 hlineto
            return
          </CharString>
          <CharString index="30">
            2 rlineto
            -58 vlineto
            -15 33 -35 callsubr
            18 106 rlineto
            return
          </CharString>
          <CharString index="31">
            -87 callgsubr
            15 0 return
          </CharString>
          <CharString index="32">
            -230 -46 callgsubr
            103 -49 callgsubr
            122 78 hintmask 11001000
            -98 callgsubr
            hintmask 00110000
            return
          </CharString>
          <CharString index="33">
            rmoveto
            -90 102 -27 -17 40 -63 30 -53 19 -43 rlinecurve
            45 hlineto
            26 43 37 53 48 63 -25 17 rcurveline
            return
          </CharString>
          <CharString index="34">
            -29 -30 -91 callgsubr
            return
          </CharString>
          <CharString index="35">
            194 rmoveto
            -7 -34 -1 -13 -4 hvcurveto
            -23 -102 rlineto
            -26 -43 -47 -11 -61 hhcurveto
            -139 -106 -38 callsubr
            48 60 -12 -13 33 -28 callsubr
            -58 -70 21 -78 hhcurveto
            -3 callgsubr
            87 78 21 42 56 hvcurveto
            return
          </CharString>
          <CharString index="36">
            -187 -152 -124 -234 -245 return
          </CharString>
          <CharString index="37">
            -8 rlineto
            20 8 1 11 1 hvcurveto
            8 151 rlineto
            -7 return
          </CharString>
          <CharString index="38">
            -43 callsubr
            -5 -1 -3 -74 hvcurveto
            -108 4 4 -87 callgsubr
            -15 0 -22 -8 hvcurveto
            return
          </CharString>
          <CharString index="39">
            55 rmoveto
            -343 hlineto
            431 640 -22 17 -35 -23 rlineto
            hintmask 10001000
            11 -414 -4 0 -2 hhcurveto
            -14 -6 -3 -9 -1 hvcurveto
            25 -151 rlineto
            7 35 0 14 hvcurveto
            hintmask 01010100
            91 310 vlineto
            -428 -634 17 -20 32 17 rlineto
            hintmask 00110100
            450 -5 rlineto
            20 8 1 11 1 hvcurveto
            -25 153 18 callgsubr
            return
          </CharString>
          <CharString index="40">
            -76 -6 rmoveto
            -88 -19 -42 -47 -47 -19 42 88 88 19 42 47 47 19 -42 -88 vhcurveto
            return
          </CharString>
          <CharString index="41">
            rmoveto
            137 109 109 137 137 109 -13 callsubr
            -13 callsubr
            109 137 vhcurveto
            -37 hmoveto
            -157 126 -126 157 157 126 126 157 157 -126 126 -157 -157 -126 -126 -157 vhcurveto
            endchar
          </CharString>
          <CharString index="42">
            -17 -57 rlineto
            -161 395 hlineto
            64 15 rlineto
            13 -3 17 -14 vhcurveto
            -81 19 callgsubr
            -23 -8 hvcurveto
            64 -14 rlineto
            -64 callsubr
            return
          </CharString>
          <CharString index="43">
            -399 vlineto
            -64 -14 rlineto
            return
          </CharString>
          <CharString index="44">
            -94 4 -9 -94 callsubr
            return
          </CharString>
          <CharString index="45">
            0 94 4 vhcurveto
            93 -4 return
          </CharString>
          <CharString index="46">
            0 -23 18 vhcurveto
            return
          </CharString>
          <CharString index="47">
            234 -147 115 -181 return
          </CharString>
          <CharString index="48">
            -141 -114 -86 -164 -171 return
          </CharString>
          <CharString index="49">
            -4 -73 rlineto
            -12 33 -4 7 1 26 112 14 2 vhcurveto
            return
          </CharString>
          <CharString index="50">
            606 rmoveto
            57 -41 28 -50 -51 -43 -31 -56 -60 39 -29 51 56 39 29 62 vhcurveto
            -139 -2 rmoveto
            22 7 21 13 6 vhcurveto
            3 6 11 2 10 hhcurveto
            26 20 -19 -35 -39 -20 -17 -26 -25 -22 17 39 hvcurveto
            return
          </CharString>
          <CharString index="51">
            rmoveto
            91 -1 50 -38 -46 vvcurveto
            -53 -46 -26 -45 -30 -29 5 10 -22 vhcurveto
            2 43 rlineto
            12 -26 3 -5 -3 -22 -78 -10 -1 vhcurveto
            -16 37 54 -12 48 hhcurveto
            78 75 47 78 45 -32 45 -58 17 hvcurveto
            return
          </CharString>
          <CharString index="52">
            -74 3 46 -28 -21 227 47 167 46 2 -20 return
          </CharString>
          <CharString index="53">
            21 -39 callgsubr
            return
          </CharString>
          <CharString index="54">
            rmoveto
            -188 203 -29 -24 130 -193 -130 -193 29 -24 188 203 rlineto
            return
          </CharString>
          <CharString index="55">
            4 vlineto
            44 30 38 52 16 vhcurveto
            -9 29 rlineto
            -80 -16 -53 -68 -70 vvcurveto
            -60 17 -49 29 vhcurveto
            return
          </CharString>
          <CharString index="56">
            108 -4 3 -76 callsubr
            22 8 hvcurveto
            return
          </CharString>
          <CharString index="57">
            -62 callsubr
            33 -89 callsubr
            return
          </CharString>
          <CharString index="58">
            -26 -94 rlineto
            -235 hlineto
            5 295 -96 callgsubr
            endchar
          </CharString>
          <CharString index="59">
            10 37 13 107 81 vvcurveto
            8 -19 5 -19 -18 -19 -5 -8 -81 15 -107 10 -37 vhcurveto
            return
          </CharString>
          <CharString index="60">
            364 57 -364 hlineto
            return
          </CharString>
          <CharString index="61">
            23 callsubr
            332 50 265 51 return
          </CharString>
          <CharString index="62">
            rmoveto
            -18 -23 -25 -9 -30 -13 callgsubr
            23 -40 rlineto
            18 23 24 7 29 -14 callsubr
            return
          </CharString>
          <CharString index="63">
            -23 -7 hvcurveto
            return
          </CharString>
          <CharString index="64">
            -6 callsubr
            22 -15 1 vhcurveto
            1 return
          </CharString>
          <CharString index="65">
            -21 162 -20 return
          </CharString>
          <CharString index="66">
            rmoveto
            -21 -36 -6 24 callgsubr
            -8 -27 -25 vvcurveto
            -25 7 -24 30 22 35 8 0 vhcurveto
            0 7 26 23 vvcurveto
            27 -9 23 -27 vhcurveto
            endchar
          </CharString>
          <CharString index="67">
            -21 115 -20 hstemhm
            return
          </CharString>
          <CharString index="68">
            3 callgsubr
            30 213 -52 callgsubr
            return
          </CharString>
          <CharString index="69">
            102 209 126 39 105 62 46 hvcurveto
            17 callsubr
            return
          </CharString>
          <CharString index="70">
            -46 callgsubr
            hstem
            return
          </CharString>
          <CharString index="71">
            18 0 22 9 hvcurveto
            return
          </CharString>
          <CharString index="72">
            0 8 vhcurveto
            return
          </CharString>
          <CharString index="73">
            -19 callgsubr
            hvcurveto
            -90 callsubr
            return
          </CharString>
          <CharString index="74">
            -21 700 -20 return
          </CharString>
          <CharString index="75">
            50 75 vstem
            102 474 rmoveto
            -48 callsubr
            return
          </CharString>
          <CharString index="76">
            -21 151 -22 callsubr
            return
          </CharString>
          <CharString index="77">
            -247 -54 callsubr
            return
          </CharString>
          <CharString index="78">
            rmoveto
            36 10 88 -96 callsubr
            -87 -87 -56 0 vvcurveto
            return
          </CharString>
          <CharString index="79">
            hvcurveto
            -111 -27 callsubr
            39 return
          </CharString>
          <CharString index="80">
            vlineto
            -14 37 -35 callsubr
            26 149 rlineto
            return
          </CharString>
          <CharString index="81">
            -87 callgsubr
            -15 0 -24 -7 hvcurveto
            return
          </CharString>
          <CharString index="82">
            188 -14 rlineto
            200 144 116 253 -60 callsubr
            hvcurveto
            -204 -16 rlineto
            return
          </CharString>
          <CharString index="83">
            6 33 37 4 29 hhcurveto
            109 80 -51 -153 -141 -74 -65 -98 -37 -42 3 7 -37 hvcurveto
            endchar
          </CharString>
          <CharString index="84">
            -55 callsubr
            70 -21 162 -40 callgsubr
            hintmask 00000110
            return
          </CharString>
          <CharString index="85">
            -21 133 -20 return
          </CharString>
          <CharString index="86">
            651 rmoveto
            -19 -20 -20 -11 -22 hhcurveto
            return
          </CharString>
          <CharString index="87">
            -17 -2 callgsubr
            return
          </CharString>
          <CharString index="88">
            -32 callgsubr
            hstem
            return
          </CharString>
          <CharString index="89">
            171 -12 -3 callsubr
            return
          </CharString>
          <CharString index="90">
            30 callgsubr
            -16 -15 hvcurveto
            return
          </CharString>
          <CharString index="91">
            15 63 60 4 43 -66 callgsubr
            -99 -140 hvcurveto
            endchar
          </CharString>
          <CharString index="92">
            -99 callsubr
            141 -207 rmoveto
            -10 189 rlineto
            return
          </CharString>
          <CharString index="93">
            55 62 -25 60 hhcurveto
            36 37 11 35 31 hvcurveto
            return
          </CharString>
          <CharString index="94">
            -109 -137 -137 -109 return
          </CharString>
          <CharString index="95">
            -16 callgsubr
            42 -49 callgsubr
            -5 callgsubr
            hintmask 00110000
            return
          </CharString>
          <CharString index="96">
            73 330 9 callsubr
            -219 vmoveto
            -47 callsubr
            return
          </CharString>
          <CharString index="97">
            -302 11 rlineto
            -15 -6 -4 -10 hvcurveto
            18 -109 rlineto
            8 33 0 16 hvcurveto
            return
          </CharString>
          <CharString index="98">
            -54 callsubr
            hstem
            return
          </CharString>
          <CharString index="99">
            0 23 7 hvcurveto
            return
          </CharString>
          <CharString index="100">
            -22 18 -18 22 22 19 18 22 22 -19 19 -22 -22 -18 -19 -22 vhcurveto
            return
          </CharString>
          <CharString index="101">
            65 3 callsubr
            return
          </CharString>
          <CharString index="102">
            -32 callgsubr
            hstemhm
            return
          </CharString>
          <CharString index="103">
            -16 -1 -8 0 -26 17 hvcurveto
            155 hlineto
            6 59 8 55 54 vvcurveto
            return
          </CharString>
          <CharString index="104">
            48 622 54 return
          </CharString>
          <CharString index="105">
            vvcurveto
            54 -6 55 -8 59 vhcurveto
            -155 hlineto
            -17 0 -26 -8 -1 return
          </CharString>
          <CharString index="106">
            rmoveto
            -86 callsubr
            84 6 rlineto
            return
          </CharString>
          <CharString index="107">
            -153 hlineto
            endchar
          </CharString>
          <CharString index="108">
            -9 callsubr
            202 458 rmoveto
            15 -3 16 return
          </CharString>
          <CharString index="109">
            -60 callgsubr
            rlineto
            return
          </CharString>
          <CharString index="110">
            22 -23 callgsubr
            return
          </CharString>
          <CharString index="111">
            55 210 vlineto
            -309 -425 19 -21 32 18 rlineto
            return
          </CharString>
          <CharString index="112">
            -20 hstem
            30 76 132 76 123 76 132 76 return
          </CharString>
          <CharString index="113">
            -112 1 hhcurveto
            7 33 4 12 hvcurveto
            -4 73 rlineto
            16 return
          </CharString>
          <CharString index="114">
            -46 callgsubr
            129 -40 callsubr
            return
          </CharString>
          <CharString index="115">
            177 -12 55 657 -20 return
          </CharString>
          <CharString index="116">
            rmoveto
            -47 callsubr
            return
          </CharString>
          <CharString index="117">
            539 -42 callsubr
            hstem
            return
          </CharString>
          <CharString index="118">
            hlineto
            -59 -168 rlineto
            57 hlineto
            59 168 rlineto
            return
          </CharString>
          <CharString index="119">
            rlineto
            131 hlineto
            15 -8 callsubr
            -80 22 return
          </CharString>
          <CharString index="120">
            -11 rlineto
            -6 0 -19 return
          </CharString>
          <CharString index="121">
            14 0 19 6 hvcurveto
            return
          </CharString>
          <CharString index="122">
            0 57 51 -21 381 -20 hstemhm
            hintmask 01100000
            return
          </CharString>
          <CharString index="123">
            47 -8 -36 callgsubr
            72 283 78 return
          </CharString>
          <CharString index="124">
            13 39 56 11 49 hhcurveto
            return
          </CharString>
          <CharString index="125">
            -22 callsubr
            hstem
            48 return
          </CharString>
          <CharString index="126">
            0 -44 callsubr
            return
          </CharString>
          <CharString index="127">
            225 56 hstem
            125 225 rmoveto
            return
          </CharString>
          <CharString index="128">
            -309 -220 -21 969 -20 hstem
            return
          </CharString>
          <CharString index="129">
            vmoveto
            -20 callgsubr
          </CharString>
          <CharString index="130">
            51 -34 -21 return
          </CharString>
          <CharString index="131">
            192 1 40 -26 -21 27 -21 return
          </CharString>
          <CharString index="132">
            21 -21 658 42 hstem
            134 return
          </CharString>
          <CharString index="133">
            -229 -29 -21 800 -20 hstem
            return
          </CharString>
          <CharString index="134">
            434 -36 -20 77 -21 92 40 return
          </CharString>
          <CharString index="135">
            -112 -14 -1 vhcurveto
            return
          </CharString>
          <CharString index="136">
            15 -23 callgsubr
            return
          </CharString>
          <CharString index="137">
            113 -60 60 return
          </CharString>
        <CharString name=".notdef">
          -321 endchar
        </CharString>
        <CharString name="A">
          -21 callgsubr
          hstem
          124 52 rmoveto
          55 163 275 14 63 -43 callgsubr
          0 11 0 108 4 vhcurveto
          87 -26 callgsubr
          -75 22 -232 648 rlineto
          -76 hlineto
          -230 -648 -75 -80 callsubr
          4 4 callgsubr
          -51 callsubr
          98 589 rmoveto
          122 -346 rlineto
          -240 hlineto
          endchar
        </CharString>
        <CharString name="AE">
          309 4 23 callsubr
          223 50 59 50 265 51 2 -20 hstemhm
          hintmask 10111000
          725 -62 callgsubr
          hintmask 01110100
          -42 callgsubr
          -339 -4 -83 4 -276 -648 -75 -95 callsubr
          hintmask 10111000
          0 4 4 callgsubr
          hintmask 01111000
          -51 callsubr
          -95 22 68 165 251 12 38 -43 callgsubr
          119 8 rlineto
          -8 291 3 0 2 hhcurveto
          14 6 3 9 1 hvcurveto
          8 151 18 callgsubr
          hintmask 10111000
          -26 -94 rlineto
          -221 hlineto
          -59 270 270 14 rlineto
          43 -282 vlineto
          -58 264 293 3 rlineto
          -366 -27 rmoveto
          75 -349 rlineto
          -219 hlineto
          endchar
        </CharString>
        <CharString name="Aacute">
          104 191 244 65 194 endchar
        </CharString>
        <CharString name="Acircumflex">
          -21 callgsubr
          94 -21 176 -79 callsubr
          151 582 -75 callgsubr
        </CharString>
        <CharString name="Adieresis">
          -21 callgsubr
          129 -40 callsubr
          233 23 callgsubr
          hintmask 11100000
          124 52 rmoveto
          55 163 275 14 63 -43 callgsubr
          0 11 0 108 4 vhcurveto
          87 -26 callgsubr
          -75 22 -232 648 rlineto
          -76 hlineto
          -230 -648 -75 -80 callsubr
          4 4 callgsubr
          -51 callsubr
          98 589 rmoveto
          122 -346 rlineto
          -240 hlineto
          90 630 rmoveto
          -107 callgsubr
          hintmask 00011110
          -91 callsubr
          endchar
        </CharString>
        <CharString name="Agrave">
          -21 callgsubr
          103 -21 162 -79 callsubr
          259 508 -81 callgsubr
        </CharString>
        <CharString name="Aring">
          104 207 244 65 202 endchar
        </CharString>
        <CharString name="Atilde">
          104 142 244 65 196 endchar
        </CharString>
        <CharString name="B">
          56 8 36 -23 -21 648 -20 34 38 hstemhm
          134 75 227 75 -24 80 hintmask 01111100
          511 529 rmoveto
          86 -72 85 -141 -4 -4 0 -4 -122 vhcurveto
          -93 callsubr
          hintmask 10111100
          111 8 rlineto
          hintmask 01111010
          -8 177 3 0 4 hhcurveto
          130 77 87 105 78 -54 77 -111 27 hvcurveto
          hintmask 10111100
          72 30 37 62 63 vvcurveto
          -177 -485 rmoveto
          -24 -52 4 10 -53 hvcurveto
          9 278 102 12 rlineto
          hintmask 10111010
          116 55 -80 -77 -74 -47 -73 -106 hvcurveto
          -49 618 rmoveto
          hintmask 10111100
          100 51 -67 -69 -66 -47 -67 -93 -9 hvcurveto
          -82 hlineto
          -9 264 rlineto
          endchar
        </CharString>
        <CharString name="C">
          86 -12 53 612 59 hstem
          40 88 vstem
          592 -72 callsubr
          endchar
        </CharString>
        <CharString name="Ccedilla">
          66 -212 -21 42 -20 199 53 -41 -20 673 59 hstemhm
          30 88 224 63 hintmask 00101100
          582 -72 callsubr
          hintmask 11010010
          -308 -134 -53 callgsubr
        </CharString>
        <CharString name="D">
          24 callsubr
          658 16 callgsubr
          hintmask 00110110
          -38 callgsubr
          111 8 rlineto
          hintmask 01010110
          -25 callsubr
          hintmask 10001110
          -94 4 -17 -94 callsubr
          324 -629 rmoveto
          -55 -57 8 12 -54 hvcurveto
          10 289 -10 289 rlineto
          hintmask 10010110
          -16 callsubr
        </CharString>
        <CharString name="Delta">
          97 0 58 642 -20 hstem
          288 700 rmoveto
          -248 -700 rlineto
          573 hlineto
          -249 700 rlineto
          -51 -81 rmoveto
          197 -561 rlineto
          -389 hlineto
          endchar
        </CharString>
        <CharString name="E">
          45 -51 callgsubr
          hstemhm
          134 78 hintmask 10110100
          473 -62 callgsubr
          hintmask 01101100
          -103 callgsubr
          hintmask 10110100
          -84 callsubr
          endchar
        </CharString>
        <CharString name="Eacute">
          25 -51 callgsubr
          103 -21 162 -100 callsubr
          -270 113 -69 callgsubr
        </CharString>
        <CharString name="Ecircumflex">
          25 -51 callgsubr
          94 -21 176 -100 callsubr
          -172 206 -75 callgsubr
        </CharString>
        <CharString name="Edieresis">
          25 -51 callgsubr
          129 -40 callsubr
          124 78 -29 23 callgsubr
          hintmask 1011000100000000
          463 -62 callgsubr
          hintmask 0110100100000000
          -103 callgsubr
          hintmask 1011000100000000
          -84 callsubr
          -234 254 rmoveto
          -107 callgsubr
          hintmask 0000011011000000
          -91 callsubr
          endchar
        </CharString>
        <CharString name="Egrave">
          25 -51 callgsubr
          103 -21 162 -100 callsubr
          -64 132 -81 callgsubr
        </CharString>
        <CharString name="Eth">
          24 callsubr
          331 51 -37 -21 334 16 callgsubr
          hintmask 0000100000000000
          67 324 rmoveto
          336 15 rlineto
          hintmask 0001000000000000
          43 -336 vlineto
          hintmask 0000100000000000
          hintmask 0010010110000000
          67 266 rmoveto
          -86 callgsubr
          111 8 rlineto
          hintmask 0100010110000000
          -25 callsubr
          hintmask 1000001110000000
          -94 4 -17 -94 callsubr
          324 -629 rmoveto
          -55 -57 8 12 -54 hvcurveto
          10 289 -10 289 rlineto
          hintmask 1000010110000000
          -16 callsubr
        </CharString>
        <CharString name="Euro">
          9 -21 525 50 hstem
          93 83 vstem
          325 251 rmoveto
          -149 47 149 37 -147 hlineto
          120 11 45 58 75 hhcurveto
          30 38 -10 -16 23 hvcurveto
          -58 callsubr
          23 -40 -58 16 -54 hhcurveto
          -108 -90 -80 -148 -19 hvcurveto
          -57 -37 54 -47 -54 -37 57 hlineto
          -153 18 82 -73 105 hhcurveto
          58 61 16 23 43 hvcurveto
          14 -2 -26 112 -1 hhcurveto
          -7 -33 -4 -12 hvcurveto
          4 -73 rlineto
          -16 -26 -30 -11 -33 hhcurveto
          -75 -45 57 120 -11 hvcurveto
          147 hlineto
          endchar
        </CharString>
        <CharString name="F">
          -6 21 -21 316 50 281 51 2 -20 hstemhm
          134 78 hintmask 11101000
          443 -62 callgsubr
          hintmask 11011000
          -42 callgsubr
          -310 -4 rlineto
          -93 callsubr
          0 9 -62 callsubr
          43 -89 callsubr
          -111 22 8 258 247 13 rlineto
          43 vlineto
          -246 1 -9 279 235 3 rlineto
          endchar
        </CharString>
        <CharString name="G">
          109 -12 53 270 49 293 59 hstem
          40 88 vstem
          596 111 rmoveto
          249 -262 -43 vlineto
          185 -11 17 -209 rlineto
          -33 -44 -69 -23 -60 hhcurveto
          -133 -102 -38 callsubr
          53 66 -12 -13 37 -28 callsubr
          -62 -75 21 -84 hhcurveto
          -71 callsubr
          134 -121 179 87 83 25 59 82 hvcurveto
          endchar
        </CharString>
        <CharString name="H">
          233 21 -21 333 51 316 -20 hstem
          134 78 364 79 vstem
          739 670 rmoveto
          7 0 23 -15 vhcurveto
          0 -9 0 -94 -4 vhcurveto
          -93 4 -12 -94 callsubr
          80 -22 -9 -264 rlineto
          -355 hlineto
          -9 264 -56 callgsubr
          12 -76 callsubr
          23 7 hvcurveto
          -80 22 9 274 354 14 10 -288 -80 -80 callsubr
          12 0 93 4 vhcurveto
          94 -4 9 -89 callsubr
          -84 22 rlineto
          596 vlineto
          endchar
        </CharString>
        <CharString name="I">
          -211 -37 callsubr
          133 78 vstem
          136 -103 callsubr
          endchar
        </CharString>
        <CharString name="Iacute">
          -75 callsubr
          27 92 -69 callgsubr
        </CharString>
        <CharString name="Icircumflex">
          -230 -46 callgsubr
          94 -5 callsubr
          122 78 hintmask 11001000
          -98 callgsubr
          hintmask 00110000
          125 185 -75 callgsubr
        </CharString>
        <CharString name="Idieresis">
          -230 7 callsubr
          46 87 -11 78 -6 87 hintmask 11000100
          -98 callgsubr
          63 233 rmoveto
          -107 callgsubr
          hintmask 00111010
          -91 callsubr
          endchar
        </CharString>
        <CharString name="Igrave">
          -75 callsubr
          233 111 -81 callgsubr
        </CharString>
        <CharString name="J">
          -241 -183 -21 904 -20 hstem
          133 79 vstem
          133 159 rmoveto
          -120 -55 -114 -82 -108 vhcurveto
          30 -21 rlineto
          112 124 74 128 138 vvcurveto
          462 vlineto
          84 21 -23 callgsubr
          24 -15 vhcurveto
          0 -17 0 -94 -4 vhcurveto
          -93 4 -23 -87 callgsubr
          -12 callgsubr
          endchar
        </CharString>
        <CharString name="K">
          67 -37 callsubr
          134 78 vstem
          414 700 rmoveto
          -15 19 callsubr
          72 -20 -140 -278 rlineto
          -114 hlineto
          -9 276 -56 callgsubr
          33 -76 callsubr
          23 7 hvcurveto
          -101 22 9 272 98 12 10 -8 10 -14 10 -19 rlinecurve
          161 -295 12 callsubr
          -145 247 -20 34 -18 16 -18 8 rlinecurve
          166 291 67 22 rlineto
          7 -2 23 -12 vhcurveto
          -95 -4 rlineto
          endchar
        </CharString>
        <CharString name="L">
          -35 4 51 -34 -33 callsubr
          hstemhm
          132 78 hintmask 01110000
          135 648 -48 callgsubr
          hintmask 10110000
          -49 callsubr
        </CharString>
        <CharString name="Lslash">
          -35 4 23 callsubr
          301 -21 189 -20 251 -20 hstemhm
          132 78 hintmask 00110000
          53 280 rmoveto
          263 151 -19 38 -270 -137 rlineto
          hintmask 01001100
          108 316 -48 callgsubr
          hintmask 10001100
          -49 callsubr
        </CharString>
        <CharString name="M">
          352 -37 callsubr
          125 55 525 77 vstem
          138 4 rmoveto
          110 -4 rlineto
          16 0 22 8 hvcurveto
          -95 22 23 542 231 -544 rlineto
          19 hlineto
          253 551 21 -549 -95 -22 rlineto
          -8 0 -22 16 vhcurveto
          113 4 rlineto
          87 -4 31 -89 callsubr
          -85 22 -31 595 82 3 callsubr
          24 -15 vhcurveto
          0 -35 0 -123 -4 vhcurveto
          -231 -512 -209 512 rlineto
          -123 4 -39 -26 callsubr
          82 -22 -31 -595 -85 -80 callsubr
          11 4 callgsubr
          endchar
        </CharString>
        <CharString name="N">
          234 -37 callsubr
          132 58 428 55 vstem
          615 648 rmoveto
          6 -522 -421 570 rlineto
          -123 4 -12 -26 callsubr
          82 -22 rlineto
          -595 vlineto
          -82 -80 callsubr
          11 4 callgsubr
          121 -4 rlineto
          16 0 22 8 hvcurveto
          -106 22 -8 531 430 -583 rlineto
          56 hlineto
          3 648 75 -70 callgsubr
          -1 0 -87 -4 vhcurveto
          -121 4 rlineto
          -16 0 -22 -8 hvcurveto
          endchar
        </CharString>
        <CharString name="Ntilde">
          234 192 244 78 196 endchar
        </CharString>
        <CharString name="O">
          191 -12 -3 callsubr
          hstem
          40 88 491 88 vstem
          707 -106 callgsubr
          endchar
        </CharString>
        <CharString name="OE">
          400 -12 48 -32 -46 callsubr
          -37 51 -12 -20 hstemhm
          40 88 361 78 hintmask 1000010100000000
          508 638 rmoveto
          15 58 rlineto
          9 -56 -55 7 -57 hhcurveto
          -177 -138 -118 -253 -243 139 -110 182 50 61 7 13 53 hvcurveto
          20 44 -27 16 rlineto
          -21 -54 -42 -11 -47 hhcurveto
          -140 -107 105 214 129 39 107 63 48 hvcurveto
          16 46 42 6 42 hhcurveto
          49 48 -9 -14 51 hvcurveto
          hintmask 0101100010000000
          320 -83 -61 callgsubr
          hintmask 0011001010000000
          -103 callgsubr
          hintmask 0101100010000000
          -84 callsubr
          endchar
        </CharString>
        <CharString name="Oacute">
          -79 callgsubr
          148 410 -69 callgsubr
        </CharString>
        <CharString name="Ocircumflex">
          -18 callsubr
          62 -21 176 -93 callgsubr
          246 503 -75 callgsubr
        </CharString>
        <CharString name="Odieresis">
          -18 callsubr
          97 -40 callsubr
          30 88 128 23 callgsubr
          128 88 hintmask 11001001
          -105 callgsubr
          184 551 rmoveto
          -107 callgsubr
          hintmask 00110110
          -91 callsubr
          endchar
        </CharString>
        <CharString name="Ograve">
          -79 callgsubr
          354 429 -81 callgsubr
        </CharString>
        <CharString name="Omega">
          191 21 -21 658 54 hstem
          40 87 492 88 vstem
          689 hmoveto
          14 0 24 6 hvcurveto
          -156 22 -15 76 rlineto
          107 46 68 110 132 vvcurveto
          179 -147 117 -181 -187 -152 -125 -178 -131 66 -109 105 -44 vhcurveto
          -14 -73 -156 -22 rlineto
          -6 0 -24 14 vhcurveto
          203 hlineto
          26 142 rlineto
          -122 72 -35 94 89 vvcurveto
          157 106 104 140 140 106 -100 -151 -95 -35 -97 -124 -73 vhcurveto
          26 -142 rlineto
          endchar
        </CharString>
        <CharString name="Oslash">
          171 -29 -21 38 -3 callsubr
          38 -17 callgsubr
          hintmask 01101100
          -105 callgsubr
          hintmask 10010000
          52 -402 8 callgsubr
        </CharString>
        <CharString name="Otilde">
          -18 callsubr
          89 64 -46 -21 30 64 3 -17 callgsubr
          hintmask 11000011
          -105 callgsubr
          hintmask 00100100
          386 543 rmoveto
          -19 -20 -20 -11 -22 hhcurveto
          hintmask 00011000
          -67 callgsubr
          hintmask 00100100
          -47 callgsubr
          endchar
        </CharString>
        <CharString name="P">
          7 25 callsubr
          79 248 72 vstem
          -38 callgsubr
          0 9 -62 callsubr
          43 -89 callsubr
          -111 22 7 224 67 6 rlineto
          169 16 82 96 7 callgsubr
          rlineto
          -63 callsubr
          258 -12 12 callgsubr
          -73 4 1 19 -10 298 rlineto
          endchar
        </CharString>
        <CharString name="Q">
          191 -210 -21 219 -3 callsubr
          hstem
          40 88 491 88 vstem
          460 -212 rmoveto
          -12 5 12 -7 16 hhcurveto
          16 20 6 15 24 hvcurveto
          -127 202 rlineto
          166 24 115 121 226 vvcurveto
          -89 callgsubr
          190 vhcurveto
          -240 364 -101 callsubr
          endchar
        </CharString>
        <CharString name="R">
          40 25 callsubr
          78 239 72 vstem
          -38 callgsubr
          0 9 -50 callsubr
          -101 22 8 249 94 15 12 -8 11 -14 12 -22 rlinecurve
          144 -272 12 callsubr
          -128 224 -17 29 -16 16 -15 9 rlinecurve
          95 32 49 78 68 vvcurveto
          103 -74 89 -125 -3 -2 0 -4 -151 vhcurveto
          -63 callsubr
          248 -12 rmoveto
          106 47 -75 -73 -76 -50 -80 -121 hvcurveto
          -63 4 -9 290 rlineto
          endchar
        </CharString>
        <CharString name="S">
          -2 -12 48 626 50 hstem
          69 70 280 85 vstem
          504 -84 callgsubr
          endchar
        </CharString>
        <CharString name="Scaron">
          -22 -12 48 626 50 62 -5 callsubr
          59 70 280 85 hintmask 11001100
          494 -84 callgsubr
          hintmask 00110000
          -209 657 -24 callgsubr
        </CharString>
        <CharString name="T">
          7 21 -21 648 49 3 -20 hstemhm
          242 78 hintmask 11010000
          281 695 rmoveto
          hintmask 10110000
          -244 5 rlineto
          -18 -13 0 -10 -1 hvcurveto
          11 -157 rlineto
          8 34 0 14 hvcurveto
          15 103 172 -4 -5 -296 20 callgsubr
          -113 -80 callsubr
          43 -62 callsubr
          39 -89 callsubr
          -113 22 5 298 -5 296 172 4 15 -103 rlineto
          -14 34 -35 callsubr
          11 157 rlineto
          -42 callgsubr
          endchar
        </CharString>
        <CharString name="Thorn">
          6 21 -21 161 42 -28 -21 380 42 124 -20 hstemhm
          133 78 249 72 hintmask 01010010
          307 534 12 callgsubr
          -77 5 rlineto
          hintmask 00110010
          -59 -54 rlineto
          hintmask 01010010
          128 7 rlineto
          170 9 81 100 7 callgsubr
          40 -48 rlineto
          hintmask 10001100
          -71 124 rmoveto
          -5 -298 20 callgsubr
          -86 -80 callsubr
          18 -62 callsubr
          10 -89 callsubr
          -86 22 5 298 -96 callgsubr
          endchar
        </CharString>
        <CharString name="U">
          8 callsubr
          hstem
          114 78 383 58 vstem
          -97 callgsubr
          endchar
        </CharString>
        <CharString name="Uacute">
          177 264 244 85 194 endchar
        </CharString>
        <CharString name="Ucircumflex">
          8 callsubr
          94 -21 176 -82 callgsubr
          120 155 -75 callgsubr
        </CharString>
        <CharString name="Udieresis">
          177 202 244 85 200 endchar
        </CharString>
        <CharString name="Ugrave">
          8 callsubr
          103 -21 162 -82 callgsubr
          204 81 -81 callgsubr
        </CharString>
        <CharString name="V">
          87 -44 callgsubr
          225 -648 rlineto
          70 hlineto
          218 648 -69 callsubr
          85 -22 -178 -553 -185 553 rlineto
          endchar
        </CharString>
        <CharString name="W">
          364 -44 callgsubr
          182 -648 rlineto
          76 hlineto
          137 447 139 -447 rlineto
          76 hlineto
          180 648 -6 callsubr
          21 -15 2 vhcurveto
          1 -5 -1 -3 -74 hvcurveto
          -103 4 rlineto
          -15 0 -22 -8 hvcurveto
          85 -22 -149 -535 -147 471 rlineto
          67 -35 vlineto
          -166 -538 -145 535 rlineto
          endchar
        </CharString>
        <CharString name="X">
          140 -37 callsubr
          416 30 rmoveto
          -8 0 -22 15 vhcurveto
          0 20 0 108 4 vhcurveto
          87 -4 20 -89 callsubr
          -80 22 -209 313 203 283 -43 callsubr
          -4 -1 -3 -75 hvcurveto
          -111 4 rlineto
          -15 0 -22 -8 hvcurveto
          82 -22 -164 -234 -155 234 77 22 rlineto
          8 0 22 -15 vhcurveto
          0 1 -30 callgsubr
          -21 -94 callsubr
          75 -22 196 -295 -217 -301 -75 -22 -68 callgsubr
          14 vhcurveto
          0 13 0 76 4 vhcurveto
          121 -4 rlineto
          15 0 22 8 hvcurveto
          -92 22 177 253 169 -253 rlineto
          endchar
        </CharString>
        <CharString name="Y">
          24 -37 callsubr
          259 78 vstem
          232 -100 callgsubr
          endchar
        </CharString>
        <CharString name="Yacute">
          4 -46 callgsubr
          103 -49 callgsubr
          249 78 hintmask 11001000
          222 -100 callgsubr
          hintmask 00110000
          45 114 -69 callgsubr
        </CharString>
        <CharString name="Ydieresis">
          4 7 callsubr
          182 87 -20 78 3 87 hintmask 11000100
          222 -100 callgsubr
          101 255 rmoveto
          -107 callgsubr
          hintmask 00111010
          -91 callsubr
          endchar
        </CharString>
        <CharString name="Z">
          55 6 callgsubr
          hstemhm
          hintmask 10010100
          489 -68 callsubr
          endchar
        </CharString>
        <CharString name="Zcaron">
          35 6 callgsubr
          82 -5 callsubr
          hintmask 10010100
          479 -68 callsubr
          hintmask 10010100
          hintmask 00000011
          -170 676 -24 callgsubr
        </CharString>
        <CharString name="a">
          -45 callgsubr
          hstem
          124 45 rmoveto
          36 101 186 10 40 -111 -68 -14 rlineto
          -25 callgsubr
          0 16 0 71 3 vhcurveto
          63 -3 18 -87 callgsubr
          17 -8 callsubr
          -58 16 -171 443 rlineto
          -65 hlineto
          -169 -444 -58 -15 rlineto
          -19 6 -11 11 vhcurveto
          69 3 rlineto
          79 -3 8 -87 callgsubr
          -36 callsubr
          62 381 rmoveto
          77 -214 rlineto
          0 callsubr
        </CharString>
        <CharString name="aacute">
          -45 callgsubr
          68 -20 22 -49 callgsubr
          hintmask 10010000
          hintmask 00001100
          163 -92 callsubr
          hintmask 11100000
          -26 -492 rmoveto
          36 101 186 10 40 -111 -68 -14 rlineto
          -25 callgsubr
          0 16 0 71 3 vhcurveto
          63 -3 18 -87 callgsubr
          17 -8 callsubr
          -58 16 -171 443 rlineto
          -65 hlineto
          -169 -444 -58 -15 rlineto
          -19 6 -11 11 vhcurveto
          69 3 rlineto
          79 -3 8 -87 callgsubr
          -36 callsubr
          62 381 rmoveto
          77 -214 rlineto
          0 callsubr
        </CharString>
        <CharString name="acircumflex">
          -45 callgsubr
          61 -19 callsubr
          254 -85 callgsubr
          -33 -464 rmoveto
          36 101 186 10 40 -111 -68 -14 rlineto
          -25 callgsubr
          0 16 0 71 3 vhcurveto
          63 -3 18 -87 callgsubr
          17 -8 callsubr
          -58 16 -171 443 rlineto
          -65 hlineto
          -169 -444 -58 -15 rlineto
          -19 6 -11 11 vhcurveto
          69 3 rlineto
          79 -3 8 -87 callgsubr
          -36 callsubr
          62 381 rmoveto
          77 -214 rlineto
          0 callsubr
        </CharString>
        <CharString name="acute">
          -239 10 callsubr
          61 -92 callsubr
          endchar
        </CharString>
        <CharString name="adieresis">
          -45 callgsubr
          96 -40 callsubr
          136 23 callgsubr
          hintmask 00011110
          192 659 rmoveto
          -16 -33 -7 0 hvcurveto
          -1 -3 -6 -26 -27 vvcurveto
          -26 6 -26 26 17 32 9 0 vhcurveto
          1 3 5 25 25 vvcurveto
          -91 callsubr
          hintmask 11100000
          -216 -614 rmoveto
          36 101 186 10 40 -111 -68 -14 rlineto
          -25 callgsubr
          0 16 0 71 3 vhcurveto
          63 -3 18 -87 callgsubr
          17 -8 callsubr
          -58 16 -171 443 rlineto
          -65 hlineto
          -169 -444 -58 -15 rlineto
          -19 6 -11 11 vhcurveto
          69 3 rlineto
          79 -3 8 -87 callgsubr
          -36 callsubr
          62 381 rmoveto
          77 -214 rlineto
          0 callsubr
        </CharString>
        <CharString name="ae">
          116 6 43 -28 -21 151 47 30 46 167 46 2 -20 hstemhm
          hintmask 10111000
          391 6 rmoveto
          hintmask 01111000
          -6 213 3 0 2 hhcurveto
          13 5 3 9 -76 callgsubr
          hintmask 10111000
          -17 -57 rlineto
          -153 hlineto
          -41 174 162 10 rlineto
          41 -174 vlineto
          -39 166 202 -77 callsubr
          hintmask 01110100
          -35 callgsubr
          -242 -3 -70 3 -203 -443 -57 -15 rlineto
          -8 0 -23 17 vhcurveto
          0 1 0 67 3 vhcurveto
          81 -3 1 -87 callgsubr
          17 0 22 9 hvcurveto
          -68 14 45 102 174 9 26 -110 -65 -15 rlineto
          -9 0 -22 17 vhcurveto
          hintmask 10111000
          -37 410 rmoveto
          50 -212 rlineto
          -142 hlineto
          endchar
        </CharString>
        <CharString name="agrave">
          -45 callgsubr
          70 -49 callgsubr
          hintmask 00011000
          348 -88 callgsubr
          hintmask 11100000
          -213 -473 rmoveto
          36 101 186 10 40 -111 -68 -14 rlineto
          -25 callgsubr
          0 16 0 71 3 vhcurveto
          63 -3 18 -87 callgsubr
          17 -8 callsubr
          -58 16 -171 443 rlineto
          -65 hlineto
          -169 -444 -58 -15 rlineto
          -19 6 -11 11 vhcurveto
          69 3 rlineto
          79 -3 8 -87 callgsubr
          -36 callsubr
          62 381 rmoveto
          77 -214 rlineto
          0 callsubr
        </CharString>
        <CharString name="ampersand">
          24 -13 58 -24 -21 492 -20 156 53 hstemhm
          7 76 50 77 hintmask 10111100
          230 611 rmoveto
          12 28 30 5 31 hhcurveto
          33 34 -7 -11 31 hvcurveto
          -104 -27 callsubr
          23 -50 -67 17 -62 hhcurveto
          -97 -79 -40 -116 -44 24 -50 25 -41 hvcurveto
          -30 -17 rlineto
          -97 -55 -48 -86 -77 vvcurveto
          -90 67 -78 134 71 62 32 49 50 vhcurveto
          hintmask 01111100
          45 -68 rlineto
          128 hlineto
          16 0 24 7 hvcurveto
          -84 24 -50 76 53 76 32 90 8 70 rlinecurve
          7 -14 -109 33 -7 hhcurveto
          -2 -9 -23 -10 -5 1 -4 4 -2 hvcurveto
          68 -35 -2 -43 -19 -57 -34 -52 rlinecurve
          -167 257 rlineto
          -24 36 -15 37 37 vvcurveto
          23 6 23 14 22 vhcurveto
          hintmask 10111100
          -15 -566 rmoveto
          -85 -47 64 71 54 28 58 58 37 hvcurveto
          37 24 157 -242 rlineto
          -39 -41 -51 -27 -56 hhcurveto
          endchar
        </CharString>
        <CharString name="apple">
          367 -102 96 506 96 hstem
          112 96 508 96 vstem
          556 -89 rmoveto
          1 3 4 0 3 8 7 -1 8 hhcurveto
          26 2 19 10 17 hvcurveto
          15 8 21 1 13 9 13 9 5 22 12 12 10 10 16 1 9 11 11 13 -1 24 8 14 rrcurveto
          10 17 24 1 28 10 -2 11 11 vvcurveto
          25 22 3 3 20 vhcurveto
          14 -11 15 15 13 11 12 14 22 -24 14 25 8 1 8 9 vvcurveto
          28 -25 3 -11 18 vhcurveto
          -6 10 5 22 -6 10 -11 19 -26 4 -14 13 -12 12 2 18 -13 9 -14 10 -16 -3 -15 8 rrcurveto
          10 -19 -2 26 -27 -10 -10 -3 -8 -24 -7 25 -26 -14 -17 -12 -14 -13 -18 12 -13 -22 -8 -23 -25 -9 -9 2 -8 hhcurveto
          -25 -1 -7 -28 -17 -9 -16 -8 -22 2 -13 -11 -11 -10 -4 -21 -10 -10 -11 -11 -21 0 -8 -13 -7 -11 3 -21 -7 -11 rrcurveto
          -10 -17 -25 -6 -25 -8 1 -9 -8 -19 -25 -21 -21 -15 12 -10 -17 -15 -12 -15 -14 -21 25 -15 -19 -8 -3 -8 -9 vvcurveto
          -26 26 -11 8 -12 vhcurveto
          11 -18 -7 -11 11 -18 10 -16 16 3 13 -11 13 -11 -1 -24 18 -11 16 -10 7 9 23 -12 rrcurveto
          -7 13 12 -29 26 7 9 2 8 24 11 -25 20 15 15 12 16 15 16 -10 15 hhcurveto
          17 13 18 5 18 hvcurveto
          -26 92 rmoveto
          -3 -13 -10 -13 -12 -11 -11 7 -11 -12 -12 -9 -12 hhcurveto
          2 -14 -7 16 -19 -5 -5 -1 -5 hhcurveto
          -19 -7 21 5 -11 hvcurveto
          -17 9 -5 -8 -11 8 -13 8 1 18 -10 8 -9 8 -12 -2 -7 11 -8 13 5 9 -8 13 rrcurveto
          -5 9 -20 7 19 5 2 6 5 15 -17 11 15 11 8 11 11 12 -8 7 11 16 17 14 16 5 -1 6 5 vvcurveto
          19 19 4 7 13 vhcurveto
          5 8 -2 15 5 8 7 9 14 0 8 8 8 8 2 15 9 7 9 8 16 -2 11 6 rrcurveto
          6 13 4 21 19 6 5 -1 6 19 7 17 16 10 12 -9 10 10 12 9 11 19 3 -18 19 6 7 2 7 hhcurveto
          20 1 -19 -7 13 hvcurveto
          12 -7 11 4 10 -8 10 -7 -2 -13 9 -8 10 -10 19 -3 8 -13 4 -8 -3 -15 4 -8 rrcurveto
          8 -14 18 -1 -21 -6 -1 -6 -5 -18 18 -11 -16 -9 -8 -10 -9 -11 8 -11 -10 vvcurveto
          -3 -14 -15 -3 -19 -6 1 -7 -7 vvcurveto
          -24 -16 3 -8 -14 vhcurveto
          -6 -11 0 -17 -7 -10 -7 -8 -12 0 -7 -8 -8 -8 -4 -15 -10 -7 -9 -7 -16 -1 -10 -6 rrcurveto
          -5 -12 -1 -16 -20 -5 -5 1 -5 hhcurveto
          -3 -3 0 -1 -3 hvcurveto
          -68 414 rmoveto
          -94 -76 -76 -94 -94 76 -76 94 94 76 76 94 94 -76 76 -94 hvcurveto
          43 -125 rmoveto
          -175 -85 175 -54 68 191 -68 vlineto
          endchar
        </CharString>
        <CharString name="approxequal">
          180 59 99 59 hstem
          423 399 -45 callsubr
          -22 -118 -45 callsubr
          endchar
        </CharString>
        <CharString name="aring">
          -45 callgsubr
          31 33 143 -20 hstemhm
          161 46 93 46 hintmask 00011110
          346 -57 callsubr
          hintmask 11100000
          -83 -559 rmoveto
          36 101 186 10 40 -111 -68 -14 rlineto
          -25 callgsubr
          0 16 0 71 3 vhcurveto
          63 -3 18 -87 callgsubr
          17 -8 callsubr
          -58 16 -171 443 rlineto
          -65 hlineto
          -169 -444 -58 -15 rlineto
          -19 6 -11 11 vhcurveto
          69 3 rlineto
          79 -3 8 -87 callgsubr
          -36 callsubr
          62 381 rmoveto
          77 -214 rlineto
          0 callsubr
        </CharString>
        <CharString name="asciicircum">
          468 -20 hstem
          135 225 rmoveto
          120 232 121 -232 rlineto
          60 hlineto
          -152 287 rlineto
          -57 hlineto
          -152 -287 rlineto
          endchar
        </CharString>
        <CharString name="asciitilde">
          238 56 -31 56 2 -20 hstemhm
          hintmask 10100000
          423 321 rmoveto
          -18 -23 -25 -9 -30 hhcurveto
          hintmask 01000000
          -13 callgsubr
          hintmask 10100000
          23 -37 rlineto
          hintmask 01000000
          18 23 24 7 29 hhcurveto
          hintmask 10100000
          -14 callsubr
          endchar
        </CharString>
        <CharString name="asterisk">
          -107 374 -21 219 -21 84 -21 24 -21 95 -20 hstemhm
          183 80 hintmask 11101100
          239 551 rmoveto
          10 24 14 73 52 vvcurveto
          8 -21 4 -19 -19 -21 -4 -8 -53 16 -72 10 -24 vhcurveto
          -6 -6 rmoveto
          17 -20 -97 52 -18 hhcurveto
          -17 -12 -52 -16 -20 127 -10 27 hvcurveto
          4 -7 rmoveto
          -22 -14 -54 -51 -31 -42 rrcurveto
          -1 -1 0 -1 -1 vvcurveto
          -14 43 -32 18 2 2 1 1 1 vhcurveto
          31 43 30 68 6 24 rrcurveto
          8 2 rmoveto
          6 -25 32 -67 30 -43 rrcurveto
          -1 1 2 -1 2 hhcurveto
          16 45 32 15 hvcurveto
          1 -1 1 1 vvcurveto
          -31 42 -56 50 -21 13 rrcurveto
          2 9 rmoveto
          27 127 10 20 hvcurveto
          hintmask 11011100
          16 -12 52 -17 -18 -97 -52 -17 -20 vhcurveto
          endchar
        </CharString>
        <CharString name="at">
          326 -172 37 123 41 433 -20 26 -20 107 37 hstemhm
          50 71 124 71 445 71 hintmask 11011111
          832 301 rmoveto
          184 -127 107 -182 -263 -210 -236 -238 -182 125 -108 182 101 102 36 63 83 vhcurveto
          -47 23 rlineto
          -54 -68 -81 -31 -79 hhcurveto
          -147 -100 96 162 198 162 234 229 147 102 -96 -164 -110 -47 -156 -120 -26 -11 10 26 30 39 233 31 140 hvcurveto
          -23 hlineto
          -23 -27 rlineto
          hintmask 11101111
          10 -25 -33 11 -17 hhcurveto
          -114 -28 -147 -70 -259 vvcurveto
          -83 23 -34 49 31 43 15 24 51 vhcurveto
          51 24 rlineto
          -45 2 22 -18 45 hhcurveto
          157 113 144 169 hvcurveto
          -474 -261 rmoveto
          -26 -16 17 48 145 40 155 118 hvcurveto
          75 hlineto
          -54 -313 -70 -32 rlineto
          -12 -26 -23 -8 -18 hhcurveto
          endchar
        </CharString>
        <CharString name="atilde">
          -45 callgsubr
          68 -9 callgsubr
          hintmask 00001101
          394 -21 callsubr
          hintmask 00001010
          -67 callgsubr
          hintmask 00010001
          -47 callgsubr
          hintmask 11100000
          -287 -587 rmoveto
          36 101 186 10 40 -111 -68 -14 rlineto
          -25 callgsubr
          0 16 0 71 3 vhcurveto
          63 -3 18 -87 callgsubr
          17 -8 callsubr
          -58 16 -171 443 rlineto
          -65 hlineto
          -169 -444 -58 -15 rlineto
          -19 6 -11 11 vhcurveto
          69 3 rlineto
          79 -3 8 -87 callgsubr
          -36 callsubr
          62 381 rmoveto
          77 -214 rlineto
          0 callsubr
        </CharString>
        <CharString name="b">
          -67 0 42 447 -36 callgsubr
          68 152 69 -31 72 hintmask 11101000
          290 hmoveto
          100 59 62 74 52 -34 52 -74 22 hvcurveto
          hintmask 11110000
          43 23 24 41 40 vvcurveto
          62 -54 61 -109 vhcurveto
          -89 -102 callgsubr
          rlineto
          116 36 rmoveto
          -17 -35 2 6 -36 hvcurveto
          7 180 68 8 rlineto
          hintmask 11101000
          76 -3 42 -50 -49 vvcurveto
          -47 -33 -47 -72 vhcurveto
          -35 409 rmoveto
          hintmask 11110000
          65 -2 37 -42 -43 vvcurveto
          -41 -32 -44 -65 -5 vhcurveto
          -51 hlineto
          -7 169 rlineto
          endchar
        </CharString>
        <CharString name="backslash">
          26 callsubr
          24 750 rmoveto
          -54 hlineto
          333 -800 rlineto
          54 hlineto
          endchar
        </CharString>
        <CharString name="bar">
          -7 callgsubr
          881 -70 hlineto
          endchar
        </CharString>
        <CharString name="braceleft">
          -284 -233 20 893 20 10 21 hstemhm
          98 68 -68 103 hintmask 11101000
          144 253 rmoveto
          30 5 27 14 34 vvcurveto
          hintmask 11110000
          58 -35 80 236 vvcurveto
          20 98 -4 callgsubr
          -90 10 -86 34 -97 vhcurveto
          -100 -27 rlineto
          -27 vlineto
          100 -27 rlineto
          -34 -97 -10 -87 -90 -1 callgsubr
          -98 16 -20 hvcurveto
          hintmask 11101000
          236 35 81 58 vvcurveto
          33 -27 14 -30 5 vhcurveto
          endchar
        </CharString>
        <CharString name="braceright">
          -284 -212 -21 51 -20 933 -20 hstemhm
          71 103 -68 68 hintmask 11110000
          128 245 rmoveto
          -30 -5 -27 -14 -34 vvcurveto
          hintmask 11101000
          -58 35 -80 -236 vvcurveto
          -20 -98 -4 callsubr
          90 -10 86 -34 97 vhcurveto
          100 27 rlineto
          27 vlineto
          -100 27 rlineto
          34 97 10 87 90 -2 callsubr
          98 -16 20 hvcurveto
          hintmask 11110000
          -236 -35 -81 -58 vvcurveto
          -33 27 -14 30 -5 vhcurveto
          endchar
        </CharString>
        <CharString name="bracketleft">
          22 callgsubr
          73 74 vstem
          117 249 rmoveto
          -34 -113 -10 -99 -102 -1 callgsubr
          -93 16 -19 hvcurveto
          862 vlineto
          19 93 -4 callgsubr
          -102 10 -99 34 -113 vhcurveto
          endchar
        </CharString>
        <CharString name="bracketright">
          22 callgsubr
          100 74 vstem
          130 249 rmoveto
          34 113 10 99 102 -2 callsubr
          93 -16 19 hvcurveto
          -862 vlineto
          -19 -93 -4 callsubr
          102 -10 99 -34 113 vhcurveto
          endchar
        </CharString>
        <CharString name="breve">
          -221 510 67 92 -20 hstem
          166 577 rmoveto
          -38 -29 36 56 -22 hvcurveto
          -34 -8 rlineto
          -97 32 31 -54 60 hhcurveto
          60 31 54 97 32 hvcurveto
          -34 8 rlineto
          -56 -22 -29 -36 -38 hhcurveto
          endchar
        </CharString>
        <CharString name="brokenbar">
          -7 callgsubr
          351 -70 hlineto
          179 vmoveto
          70 351 -70 hlineto
          endchar
        </CharString>
        <CharString name="bullet">
          -305 207 -21 161 -20 hstem
          147 347 rmoveto
          -31 -54 -8 24 callgsubr
          -12 -41 -38 vvcurveto
          -38 10 -36 45 33 53 11 0 vhcurveto
          0 10 40 34 vvcurveto
          41 -13 35 -41 vhcurveto
          endchar
        </CharString>
        <CharString name="c">
          -59 -8 48 405 52 hstem
          35 77 vstem
          452 144 rmoveto
          -7 -31 -1 -12 -5 hvcurveto
          -17 -68 rlineto
          -17 -30 -34 -6 -43 hhcurveto
          -97 -76 67 139 83 30 70 42 25 callgsubr
          32 43 -6 -8 24 hvcurveto
          -72 vlineto
          -16 35 -35 callsubr
          21 110 rlineto
          29 -45 -54 15 -59 hhcurveto
          -59 callsubr
          104 -84 139 65 59 15 31 44 hvcurveto
          endchar
        </CharString>
        <CharString name="caron">
          -221 530 -19 callsubr
          166 583 -24 callgsubr
        </CharString>
        <CharString name="ccedilla">
          -59 46 0 99 203 endchar
        </CharString>
        <CharString name="cedilla">
          -146 -212 -21 42 -20 211 -20 hstem
          236 63 vstem
          160 -83 -53 callgsubr
        </CharString>
        <CharString name="cent">
          -14 -21 609 -20 hstem
          90 78 136 66 vstem
          283 -35 rmoveto
          5 73 rlineto
          16 hlineto
          41 47 12 31 46 hvcurveto
          -3 14 -5 8 -9 8 rrcurveto
          -18 -40 -31 -7 -32 hhcurveto
          -9 -9 0 2 -9 hvcurveto
          27 376 16 -1 18 -3 20 -4 rlinecurve
          -58 callsubr
          -39 17 -38 7 -38 1 4 56 rcurveline
          -40 hlineto
          -4 -58 rlineto
          -109 -14 -83 -81 -141 vvcurveto
          -137 65 -78 93 -21 vhcurveto
          -5 -79 rlineto
          -75 316 rmoveto
          108 34 61 76 12 vhcurveto
          -26 -361 rlineto
          -53 27 -31 62 91 vvcurveto
          endchar
        </CharString>
        <CharString name="circumflex">
          -221 530 -19 callsubr
          168 -85 callgsubr
          endchar
        </CharString>
        <CharString name="colon">
          -359 9 -22 callsubr
          204 -22 callsubr
          hstemhm
          48 101 hintmask 00111000
          113 417 -74 callgsubr
          hintmask 11001000
          -296 vmoveto
          -98 callsubr
          endchar
        </CharString>
        <CharString name="comma">
          -63 callgsubr
        </CharString>
        <CharString name="copyright">
          70 217 37 68 37 235 -21 73 -20 120 37 hstem
          30 37 91 56 345 37 vstem
          440 434 rmoveto
          -6 -27 -1 -9 -3 hvcurveto
          -11 -49 rlineto
          -11 -19 -19 -5 -29 hhcurveto
          -63 -49 48 98 58 20 50 26 22 hvcurveto
          7 19 25 4 22 hhcurveto
          20 26 -5 -5 17 hvcurveto
          -51 vlineto
          -12 28 0 6 vhcurveto
          14 81 rlineto
          21 -31 -36 12 -41 hhcurveto
          -94 -77 -63 -118 -123 70 -61 93 45 40 11 22 30 hvcurveto
          -369 145 -66 callsubr
        </CharString>
        <CharString name="d">
          26 1 39 -23 -21 25 -21 450 16 callsubr
          hintmask 00110110
          119 444 -1 callsubr
          hintmask 01010110
          -29 callgsubr
          hintmask 10001110
          -15 callsubr
          hintmask 10010110
          -24 callsubr
        </CharString>
        <CharString name="dagger">
          26 callgsubr
          149 69 13 callgsubr
          20 -343 rlineto
          49 hlineto
          20 343 -28 callgsubr
        </CharString>
        <CharString name="daggerdbl">
          26 callgsubr
          155 57 13 callgsubr
          8 -139 rlineto
          -132 -49 hlineto
          136 -16 8 -139 rlineto
          49 hlineto
          8 139 135 16 rlineto
          49 -131 vlineto
          8 139 -28 callgsubr
        </CharString>
        <CharString name="degree">
          -238 439 46 185 47 hstem
          20 46 185 47 vstem
          20 578 rmoveto
          -77 62 -62 77 77 62 62 77 77 -62 62 -77 -77 -62 -62 -77 vhcurveto
          46 hmoveto
          52 41 40 52 52 40 -40 -52 -52 -40 -41 -52 -52 -41 41 52 vhcurveto
          endchar
        </CharString>
        <CharString name="dieresis">
          -182 565 -21 115 -20 hstem
          70 23 callgsubr
          vstem
          126 659 rmoveto
          -16 -33 -7 0 hvcurveto
          -1 -3 -6 -26 -27 vvcurveto
          -26 6 -26 26 17 32 9 0 vhcurveto
          1 3 5 25 25 vvcurveto
          -91 callsubr
          endchar
        </CharString>
        <CharString name="divide">
          133 -21 137 57 137 -20 hstem
          215 81 vstem
          73 249 9 callsubr
          142 96 rmoveto
          -7 callsubr
          -250 vmoveto
          -7 callsubr
          endchar
        </CharString>
        <CharString name="dollar">
          -12 51 469 53 hstem
          88 71 192 90 vstem
          247 -88 rmoveto
          5 76 rlineto
          108 1 81 51 95 vvcurveto
          45 -31 56 -63 35 vhcurveto
          -73 41 14 196 22 -3 24 -7 19 -11 rlinecurve
          -58 callsubr
          -40 21 -44 13 -43 3 5 66 rcurveline
          -40 hlineto
          -5 -66 rlineto
          -104 -8 -59 -69 -71 vvcurveto
          -49 27 -50 56 -32 vhcurveto
          59 -34 -14 -206 -27 4 -30 8 -21 11 rlinecurve
          73 vlineto
          12 -34 4 -7 -1 -19 28 callsubr
          50 -21 45 -12 41 -5 -5 -78 rcurveline
          101 291 rmoveto
          35 -20 17 -31 -29 vvcurveto
          -44 -37 -40 -67 vhcurveto
          12 187 rlineto
          -109 202 rmoveto
          48 36 27 53 5 vhcurveto
          -12 -174 -23 13 rlineto
          -26 15 -28 24 42 vvcurveto
          endchar
        </CharString>
        <CharString name="dotaccent">
          -339 562 -21 121 -20 hstem
          62 93 vstem
          121 662 rmoveto
          -19 -32 -7 24 callgsubr
          -8 -30 -29 vvcurveto
          -27 7 -28 28 20 31 9 0 vhcurveto
          0 7 29 27 vvcurveto
          29 -9 27 -25 vhcurveto
          endchar
        </CharString>
        <CharString name="dotlessi">
          -30 callsubr
          hstem
          119 71 vstem
          119 444 rmoveto
          -399 vlineto
          -64 -106 callsubr
        </CharString>
        <CharString name="e">
          -55 callsubr
          hstemhm
          119 71 hintmask 01110100
          403 hmoveto
          -85 callsubr
          hintmask 10110100
          -92 callgsubr
          hintmask 01101100
          -90 callgsubr
        </CharString>
        <CharString name="eacute">
          -23 callsubr
          153 -92 callsubr
          hintmask 01110001
          261 -537 rmoveto
          -85 callsubr
          hintmask 10110001
          -92 callgsubr
          hintmask 01101001
          -90 callgsubr
        </CharString>
        <CharString name="ecircumflex">
          -55 callsubr
          61 -21 176 -40 callgsubr
          hintmask 01110111
          251 -85 callgsubr
          249 -509 rmoveto
          -85 callsubr
          hintmask 10110111
          -92 callgsubr
          hintmask 01101111
          -90 callgsubr
        </CharString>
        <CharString name="edieresis">
          -55 callsubr
          96 -21 115 -40 callgsubr
          -57 23 callgsubr
          hintmask 0000011011000000
          189 659 rmoveto
          -16 -33 -7 0 hvcurveto
          -1 -3 -6 -26 -27 vvcurveto
          -26 6 -26 26 17 32 9 0 vhcurveto
          1 3 5 25 25 vvcurveto
          -91 callsubr
          hintmask 0111000100000000
          66 -659 rmoveto
          -85 callsubr
          hintmask 1011000100000000
          -92 callgsubr
          hintmask 0110100100000000
          -90 callgsubr
        </CharString>
        <CharString name="egrave">
          -23 callsubr
          348 -88 callgsubr
          hintmask 01110001
          66 -518 rmoveto
          -85 callsubr
          hintmask 10110001
          -92 callgsubr
          hintmask 01101001
          -90 callgsubr
        </CharString>
        <CharString name="eight">
          -12 49 582 49 hstemhm
          47 84 -62 79 213 80 -61 85 hintmask 11100100
          47 159 rmoveto
          -97 83 -74 122 135 78 77 90 94 -70 55 -67 41 vhcurveto
          hintmask 11011000
          80 46 33 71 52 vvcurveto
          87 -75 67 -108 -120 -69 -69 -82 -78 45 -54 64 -39 vhcurveto
          hintmask 11100100
          -94 -50 -37 -81 -56 vvcurveto
          255 111 rmoveto
          37 -24 41 -36 -58 vvcurveto
          -72 -60 -43 -67 -84 -38 59 68 49 30 64 57 44 vhcurveto
          hintmask 11011000
          -70 196 rmoveto
          60 39 42 70 71 33 -51 -59 -44 -21 -57 -50 -40 vhcurveto
          -54 32 rlineto
          -45 27 -43 39 51 vvcurveto
          endchar
        </CharString>
        <CharString name="ellipsis">
          35 9 10 callgsubr
          96 101 96 101 cntrmask 00111000
          113 121 -74 callgsubr
          197 hmoveto
          -98 callsubr
          197 hmoveto
          -98 callsubr
          endchar
        </CharString>
        <CharString name="emdash">
          283 20 callsubr
          609 56 -609 hlineto
          endchar
        </CharString>
        <CharString name="endash">
          35 20 callsubr
          361 56 -361 hlineto
          endchar
        </CharString>
        <CharString name="equal">
          168 57 105 57 hstem
          -11 callsubr
          endchar
        </CharString>
        <CharString name="eth">
          26 1 39 -23 -21 25 -21 227 46 -31 -21 229 16 callsubr
          hintmask 0000100000000000
          59 221 rmoveto
          302 13 rlineto
          hintmask 0001000000000000
          39 -302 vlineto
          hintmask 0000100000000000
          hintmask 0010010110000000
          60 171 -1 callsubr
          hintmask 0100010110000000
          -29 callgsubr
          hintmask 1000001110000000
          -15 callsubr
          hintmask 1000010110000000
          -24 callsubr
        </CharString>
        <CharString name="exclam">
          -299 9 -21 707 -20 hstem
          73 101 vstem
          123 695 rmoveto
          -46 -262 27 -261 rlineto
          33 hlineto
          42 523 rlineto
          -41 -600 -41 callsubr
        </CharString>
        <CharString name="exclamdown">
          -299 -218 -21 707 -20 hstem
          83 101 vstem
          134 -239 rmoveto
          46 262 -27 261 rlineto
          -33 hlineto
          -42 -523 rlineto
          41 600 -41 callgsubr
        </CharString>
        <CharString name="f">
          -115 21 -21 217 47 177 46 2 -40 callgsubr
          hintmask 11101000
          -58 callgsubr
          hintmask 11011000
          -80 callgsubr
          endchar
        </CharString>
        <CharString name="fi">
          197 21 -21 217 47 177 46 2 -40 callgsubr
          367 71 hintmask 11101000
          -58 callgsubr
          hintmask 11011000
          -80 callgsubr
          hintmask 10010100
          363 232 rmoveto
          -399 vlineto
          -64 -106 callsubr
        </CharString>
        <CharString name="five">
          -68 49 256 52 204 -20 84 -20 hstem
          373 81 vstem
          106 255 rmoveto
          29 -23 rlineto
          3 17 22 2 17 hhcurveto
          116 66 -61 -71 -83 -70 -41 -77 -35 -38 9 18 -33 hvcurveto
          4 73 rlineto
          13 -33 3 -7 -1 -27 28 callsubr
          -23 49 71 -16 70 hhcurveto
          105 104 65 110 94 -72 88 -195 -10 -9 0 -1 -10 hvcurveto
          22 205 rlineto
          198 -78 hlineto
          -16 33 0 7 2 22 127 17 vhcurveto
          12 -2 -8 2 -17 hhcurveto
          -299 -25 rlineto
          endchar
        </CharString>
        <CharString name="fl">
          327 3 46 -28 -21 217 47 177 46 2 -40 callgsubr
          367 71 hintmask 01110100
          -58 callgsubr
          hintmask 01101100
          -80 callgsubr
          hintmask 01001010
          620 -212 rmoveto
          -85 callsubr
          hintmask 10001010
          -65 callsubr
          hintmask 01001010
          -6 callgsubr
        </CharString>
        <CharString name="florin">
          -210 -21 45 -20 769 50 hstem
          192 71 vstem
          97 263 rmoveto
          95 -336 hlineto
          -59 -13 -54 -51 -27 -31 9 14 -22 vhcurveto
          -18 -39 rlineto
          -17 25 42 -12 35 hhcurveto
          77 54 43 106 hvcurveto
          345 140 37 -140 165 vlineto
          51 17 47 67 22 24 -10 -16 17 vhcurveto
          -58 callsubr
          23 -34 -52 16 -46 hhcurveto
          -89 -62 -43 -106 hvcurveto
          -164 -95 vlineto
          endchar
        </CharString>
        <CharString name="four">
          -35 -21 145 45 482 -20 hstem
          323 74 vstem
          397 hmoveto
          89 99 45 -99 223 27 callgsubr
          -39 -8 -1 hvcurveto
          -245 -239 vlineto
          207 460 -73 22 -162 -398 rlineto
          -26 -63 -15 -43 -7 vvcurveto
          -14 11 -2 17 vhcurveto
          280 -89 hlineto
          -115 -23 rlineto
          -7 0 -26 15 vhcurveto
          0 1 0 135 4 vhcurveto
          117 -4 1 -76 callsubr
          26 7 hvcurveto
          endchar
        </CharString>
        <CharString name="fraction">
          -251 -187 -21 880 -20 hstem
          -60 -208 rmoveto
          59 hlineto
          366 880 rlineto
          -59 hlineto
          endchar
        </CharString>
        <CharString name="g">
          -37 -8 48 169 48 188 52 hstem
          35 78 vstem
          461 82 rmoveto
          175 -204 -41 vlineto
          42 -2 51 -4 43 -1 11 -135 rcurveline
          -23 -30 -49 -11 -40 hhcurveto
          -98 -74 67 139 83 28 70 43 25 callgsubr
          35 45 -6 -8 27 hvcurveto
          -72 vlineto
          -16 34 -35 callsubr
          21 110 rlineto
          29 -48 -55 15 -63 hhcurveto
          -140 -114 -86 -163 -172 103 -84 139 64 65 18 43 63 hvcurveto
          endchar
        </CharString>
        <CharString name="germandbls">
          290 28 callgsubr
          hstemhm
          312 75 328 75 hintmask 11100000
          -83 callgsubr
          hintmask 11010000
          403 hmoveto
          -82 callsubr
        </CharString>
        <CharString name="grave">
          -239 10 callsubr
          267 -88 callgsubr
          endchar
        </CharString>
        <CharString name="greater">
          108 -21 381 -20 hstem
          -31 callgsubr
          endchar
        </CharString>
        <CharString name="greaterequal">
          15 callsubr
          -31 callgsubr
          hintmask 10000000
          -468 22 callsubr
        </CharString>
        <CharString name="guillemotleft">
          -96 -39 callsubr
          163 -28 -52 callgsubr
          endchar
        </CharString>
        <CharString name="guillemotright">
          -96 3 callgsubr
          430 241 -53 callsubr
          -163 28 -53 callsubr
          endchar
        </CharString>
        <CharString name="guilsinglleft">
          -259 -39 callsubr
          endchar
        </CharString>
        <CharString name="guilsinglright">
          -259 3 callgsubr
          267 241 -53 callsubr
          endchar
        </CharString>
        <CharString name="h">
          77 21 -21 227 47 215 -20 hstem
          119 71 252 72 vstem
          446 444 rmoveto
          -8 -170 rlineto
          -243 hlineto
          -8 170 67 15 rlineto
          7 0 23 -17 vhcurveto
          0 -19 0 -62 -3 vhcurveto
          -104 callsubr
          81 -81 callsubr
          -67 14 7 177 244 10 8 -187 -67 -106 callsubr
        </CharString>
        <CharString name="hungarumlaut">
          -82 10 callsubr
          61 518 -29 callsubr
          178 -19 -29 callsubr
          endchar
        </CharString>
        <CharString name="hyphen">
          -166 220 59 hstem
          333 279 rmoveto
          -283 hlineto
          5 -50 rlineto
          -5 28 41 -4 43 hhcurveto
          65 69 7 19 39 hvcurveto
          endchar
        </CharString>
        <CharString name="i">
          -30 callsubr
          hstem
          119 71 vstem
          119 444 rmoveto
          -399 vlineto
          -64 -106 callsubr
        </CharString>
        <CharString name="iacute">
          -10 callgsubr
          59 -92 callsubr
          hintmask 11001000
          71 -93 rmoveto
          -399 vlineto
          -64 -106 callsubr
        </CharString>
        <CharString name="icircumflex">
          -30 callsubr
          61 -19 callsubr
          119 71 vstem
          157 -85 callgsubr
          59 -65 rmoveto
          -399 vlineto
          -64 -106 callsubr
        </CharString>
        <CharString name="idieresis">
          -30 callsubr
          96 -40 callsubr
          39 87 -7 71 -3 87 hintmask 00111010
          95 659 rmoveto
          -16 -33 -7 0 hvcurveto
          -1 -3 -6 -26 -27 vvcurveto
          -26 6 -26 26 17 32 9 0 vhcurveto
          1 3 5 25 25 vvcurveto
          -91 callsubr
          hintmask 11000100
          -124 -215 rmoveto
          -399 vlineto
          -64 -106 callsubr
        </CharString>
        <CharString name="igrave">
          -10 callgsubr
          265 -88 callgsubr
          hintmask 11001000
          -135 -74 rmoveto
          -399 vlineto
          -64 -106 callsubr
        </CharString>
        <CharString name="infinity">
          192 100 75 203 76 hstem
          544 100 rmoveto
          87 67 72 102 114 -69 66 -82 -78 -55 -44 -62 -39 hvcurveto
          -6 -9 rlineto
          60 -43 -48 55 -74 hhcurveto
          -87 -67 -72 -102 -114 69 -66 82 78 55 44 62 39 hvcurveto
          6 10 rlineto
          -61 43 48 -55 74 hhcurveto
          -343 75 rmoveto
          -60 -42 43 61 61 43 38 59 56 39 -43 -52 37 hvcurveto
          -15 -24 rlineto
          -43 -27 -39 -41 -51 hhcurveto
          346 204 rmoveto
          60 42 -43 -61 -61 -43 -38 -59 -55 -39 43 53 -38 hvcurveto
          15 23 rlineto
          43 27 39 41 51 hhcurveto
          endchar
        </CharString>
        <CharString name="integral">
          -207 -105 -21 878 -20 hstem
          137 75 vstem
          212 508 rmoveto
          85 17 65 70 65 vhcurveto
          -24 29 rlineto
          -97 -75 -41 -47 -94 vvcurveto
          -418 vlineto
          -85 -17 -65 -70 -65 vhcurveto
          24 -29 rlineto
          97 75 41 47 94 vvcurveto
          endchar
        </CharString>
        <CharString name="j">
          -277 -120 -21 630 -20 hstem
          109 71 vstem
          109 114 rmoveto
          -81 -42 -79 -60 -74 vhcurveto
          31 -21 rlineto
          86 88 56 90 96 vvcurveto
          310 vlineto
          64 14 -23 callgsubr
          25 -18 vhcurveto
          0 -21 0 -63 -3 vhcurveto
          -68 3 -26 -87 callgsubr
          -18 0 -25 -6 hvcurveto
          20 -5 38 -5 21 -5 rrcurveto
          endchar
        </CharString>
        <CharString name="k">
          -47 0 -21 42 -39 callgsubr
          hstemhm
          112 72 hintmask 01110000
          112 444 rmoveto
          -64 callgsubr
          90 -81 callsubr
          -76 14 7 176 58 7 rlineto
          hintmask 10110000
          176 -249 50 15 -165 259 112 190 51 16 rlineto
          7 -3 23 -14 vhcurveto
          -69 -3 -50 3 rlineto
          -17 0 -25 -6 hvcurveto
          42 -13 -99 -180 rlineto
          -71 hlineto
          -8 179 57 29 callsubr
          23 -17 vhcurveto
          0 -9 -87 callsubr
          endchar
        </CharString>
        <CharString name="l">
          -126 3 46 -28 -21 489 -40 callgsubr
          hintmask 01110000
          376 hmoveto
          -85 callsubr
          hintmask 10110000
          -65 callsubr
          hintmask 01110000
          -6 callgsubr
        </CharString>
        <CharString name="less">
          108 -21 381 -20 hstem
          -33 callgsubr
          endchar
        </CharString>
        <CharString name="lessequal">
          15 callsubr
          -33 callgsubr
          hintmask 10000000
          -364 -87 rmoveto
          -20 callgsubr
        </CharString>
        <CharString name="logicalnot">
          158 -21 112 57 0 -20 hstemhm
          383 54 hintmask 10110000
          437 137 rmoveto
          169 -54 -169 vlineto
          hintmask 01000000
          -310 112 rmoveto
          -20 callgsubr
        </CharString>
        <CharString name="lozenge">
          -18 -58 -21 779 -20 hstem
          307 -79 rmoveto
          211 389 -211 390 rlineto
          -77 hlineto
          -210 -390 210 -389 rlineto
          25 719 rmoveto
          180 -330 -180 -329 -173 329 rlineto
          endchar
        </CharString>
        <CharString name="lslash">
          -126 3 46 -28 -21 189 -21 171 -20 170 -40 callgsubr
          hintmask 00110000
          53 168 rmoveto
          237 136 -18 35 -243 -124 rlineto
          hintmask 01001100
          347 -215 rmoveto
          -85 callsubr
          hintmask 10001100
          -65 callsubr
          hintmask 01001100
          -6 callgsubr
        </CharString>
        <CharString name="m">
          185 -54 callsubr
          hstemhm
          114 66 -43 43 370 65 hintmask 11011000
          91 489 rmoveto
          -20 callsubr
          63 -14 rlineto
          hintmask 11101000
          -7 -134 -9 -130 -7 -134 -64 -14 rcurveline
          -8 0 -23 17 vhcurveto
          75 6 82 -6 rlineto
          19 0 22 9 hvcurveto
          -20 4 -28 5 -21 5 13 337 rcurveline
          159 -348 rlineto
          23 hlineto
          174 355 15 -343 -70 -15 rlineto
          -25 callgsubr
          83 6 85 -81 callsubr
          -16 5 -31 4 -17 5 -24 397 rcurveline
          63 15 rlineto
          13 -6 19 -11 vhcurveto
          -119 -6 -164 -337 -148 337 rlineto
          endchar
        </CharString>
        <CharString name="macron">
          -135 570 63 hstem
          70 570 rmoveto
          281 63 -281 hlineto
          endchar
        </CharString>
        <CharString name="minus">
          249 57 hstem
          73 249 rmoveto
          -20 callgsubr
        </CharString>
        <CharString name="mu">
          -47 -178 -21 187 59 421 -20 hstem
          73 60 232 71 vstem
          138 -199 rmoveto
          -10 214 rlineto
          -17 25 33 -10 44 hhcurveto
          8 59 17 47 70 hvcurveto
          -46 8 34 -18 38 hhcurveto
          12 31 rlineto
          -18 10 -5 18 20 vvcurveto
          373 vlineto
          15 -9 9 -7 4 vhcurveto
          -16 -124 9 callgsubr
          71 -313 hlineto
          -31 -43 -51 -19 -41 hhcurveto
          -48 -38 25 72 hvcurveto
          296 vlineto
          15 -9 9 -7 4 vhcurveto
          -16 -102 9 callgsubr
          49 -609 hlineto
          endchar
        </CharString>
        <CharString name="multiply">
          136 -21 325 -20 hstem
          132 115 rmoveto
          122 122 123 -122 40 40 -123 122 123 123 -40 40 -123 -123 -122 123 -40 -40 122 -123 -122 -122 rlineto
          endchar
        </CharString>
        <CharString name="n">
          75 -9 callsubr
          114 60 293 55 vstem
          402 489 rmoveto
          -20 callsubr
          79 -14 6 -333 -297 376 rlineto
          -91 3 -14 -87 callgsubr
          -18 -2 callgsubr
          63 -14 3 -397 -66 -15 rlineto
          -72 callgsubr
          75 6 92 -6 rlineto
          -36 callsubr
          -20 4 -38 5 -21 5 -2 114 -4 113 -2 113 310 -385 rcurveline
          45 hlineto
          3 443 57 29 callsubr
          22 -17 2 vhcurveto
          -68 -3 rlineto
          endchar
        </CharString>
        <CharString name="nine">
          -112 -21 331 42 272 51 hstem
          48 85 245 90 vstem
          102 -97 rmoveto
          30 -36 rlineto
          171 111 165 135 213 vvcurveto
          165 -108 72 -106 -104 -102 -70 -116 -121 95 -58 108 vhcurveto
          107 hlineto
          -29 -82 -70 -95 -157 -118 rrcurveto
          31 474 rmoveto
          89 56 46 68 77 44 -72 -123 -20 -2 -20 -3 -20 vhcurveto
          -12 -41 -36 -5 -29 hhcurveto
          -100 -34 59 78 hvcurveto
          endchar
        </CharString>
        <CharString name="notequal">
          -35 15 188 57 105 57 180 14 hstemhm
          hintmask 01100000
          -11 callsubr
          hintmask 10010000
          33 -260 rmoveto
          41 hlineto
          256 616 rlineto
          -41 hlineto
          endchar
        </CharString>
        <CharString name="ntilde">
          75 -54 callsubr
          68 -9 callgsubr
          114 60 293 55 hintmask 0001101000000000
          456 -57 callgsubr
          -71 -143 rmoveto
          -20 callsubr
          79 -14 6 -333 -297 376 rlineto
          -91 3 -14 -87 callgsubr
          -18 -2 callgsubr
          63 -14 3 -397 -66 -15 rlineto
          -72 callgsubr
          75 6 92 -6 rlineto
          -36 callsubr
          -20 4 -38 5 -21 5 -2 114 -4 113 -2 113 310 -385 rcurveline
          45 hlineto
          3 443 57 29 callsubr
          22 -17 2 vhcurveto
          -68 -3 rlineto
          endchar
        </CharString>
        <CharString name="numbersign">
          21 -21 168 57 105 57 167 -20 hstem
          48 330 rmoveto
          114 hlineto
          -36 -105 rlineto
          -104 hlineto
          -20 -57 rlineto
          104 11 callsubr
          105 11 callsubr
          117 hlineto
          20 57 rlineto
          -117 hlineto
          36 105 rlineto
          107 hlineto
          20 57 rlineto
          -107 11 callgsubr
          -105 11 callgsubr
          -114 hlineto
          151 -57 rmoveto
          105 hlineto
          -36 -105 rlineto
          -105 hlineto
          endchar
        </CharString>
        <CharString name="o">
          -16 callgsubr
          hstem
          -5 callgsubr
          vstem
          537 253 -104 callgsubr
        </CharString>
        <CharString name="oacute">
          -12 callsubr
          192 -92 callsubr
          hintmask 11001100
          356 -284 -104 callgsubr
        </CharString>
        <CharString name="ocircumflex">
          -16 callgsubr
          33 -19 callsubr
          -5 callgsubr
          vstem
          290 -85 callgsubr
          344 -256 -104 callgsubr
        </CharString>
        <CharString name="odieresis">
          -16 callgsubr
          68 -40 callsubr
          35 78 59 23 callgsubr
          52 78 hintmask 00110110
          228 659 rmoveto
          -16 -33 -7 0 hvcurveto
          -1 -3 -6 -26 -27 vvcurveto
          -26 6 -26 26 17 32 9 0 vhcurveto
          1 3 5 25 25 vvcurveto
          -91 callsubr
          hintmask 11001001
          161 -406 -104 callgsubr
        </CharString>
        <CharString name="oe">
          168 -8 44 -44 57 -28 -21 227 47 167 56 -8 -20 hstemhm
          35 78 250 69 hintmask 01011011
          395 486 rmoveto
          6 -39 -42 5 -42 hhcurveto
          -134 -103 -82 -176 -170 104 -77 138 37 45 4 10 39 hvcurveto
          hintmask 00111011
          247 -6 rlineto
          -85 callsubr
          hintmask 01010111
          -92 callgsubr
          -35 callgsubr
          hintmask 10011011
          -354 -453 rmoveto
          -98 -75 70 142 85 27 70 43 33 hvcurveto
          9 33 30 6 30 hhcurveto
          28 29 -4 -7 30 hvcurveto
          hintmask 01011011
          -391 vlineto
          hintmask 10011011
          -9 -29 -21 -4 -27 hhcurveto
          endchar
        </CharString>
        <CharString name="ogonek">
          -87 -212 -21 44 -20 209 -20 hstem
          135 60 vstem
          247 hmoveto
          -77 -34 -35 -58 -49 vvcurveto
          -50 36 -42 67 39 29 15 16 18 vhcurveto
          -3 14 -5 8 -9 8 rrcurveto
          -11 -16 -20 -6 -19 hhcurveto
          -30 -27 16 39 47 38 63 93 24 hvcurveto
          endchar
        </CharString>
        <CharString name="ograve">
          -12 callsubr
          398 -88 callgsubr
          hintmask 11001100
          150 -265 -104 callgsubr
        </CharString>
        <CharString name="one">
          21 -21 563 -20 hstem
          259 78 vstem
          337 57 rmoveto
          475 27 callgsubr
          -202 -44 -1 -8 11 -44 15 hvcurveto
          133 33 rlineto
          -442 vlineto
          -154 -24 rlineto
          -7 0 -26 16 vhcurveto
          163 4 161 -4 rlineto
          16 0 26 7 hvcurveto
          endchar
        </CharString>
        <CharString name="onehalf">
          434 -36 -20 56 45 207 -21 157 43 231 -20 39 19 hstemhm
          188 63 585 67 hintmask 01010001
          903 315 -78 callsubr
          hintmask 00101010
          -409 230 -77 callgsubr
          hintmask 10000100
          -59 -318 -15 callgsubr
        </CharString>
        <CharString name="onequarter">
          27 callsubr
          120 -21 208 -20 243 -20 39 19 hstemhm
          188 63 534 60 hintmask 0110100010000000
          -65 callgsubr
          hintmask 0001010100000000
          -654 251 -77 callgsubr
          hintmask 1000001000000000
          -36 -318 -15 callgsubr
        </CharString>
        <CharString name="onesuperior">
          -146 206 -21 431 -20 hstem
          188 63 vstem
          251 236 -77 callgsubr
          endchar
        </CharString>
        <CharString name="ordfeminine">
          -243 298 51 0 48 292 -20 hstemhm
          hintmask 01100000
          76 425 rmoveto
          21 57 103 6 23 -62 -40 -9 rlineto
          -7 0 -15 15 vhcurveto
          0 15 0 36 2 vhcurveto
          38 -2 10 -76 callsubr
          16 5 hvcurveto
          -35 10 -102 263 rlineto
          -41 hlineto
          -101 -264 -34 -9 rlineto
          -13 6 -8 8 vhcurveto
          11 18 2 12 hhcurveto
          47 -2 0 -76 callsubr
          16 7 hvcurveto
          32 211 rmoveto
          41 -112 rlineto
          -81 hlineto
          184 -168 rmoveto
          -269 hlineto
          5 -43 rlineto
          hintmask 10100000
          2 callgsubr
        </CharString>
        <CharString name="ordmasculine">
          -213 298 51 41 31 241 32 hstem
          18 54 197 55 vstem
          324 548 rmoveto
          98 -68 48 -83 -86 -69 -51 -99 -102 63 -52 85 91 67 52 106 vhcurveto
          -252 -4 rmoveto
          50 16 41 24 18 vhcurveto
          5 16 22 4 21 hhcurveto
          56 42 -39 -79 -84 -42 -39 -56 -56 -43 39 84 hvcurveto
          231 -195 rmoveto
          -269 hlineto
          5 -43 rlineto
          2 callgsubr
        </CharString>
        <CharString name="oslash">
          16 126 -105 111 47 endchar
        </CharString>
        <CharString name="otilde">
          -16 callgsubr
          40 -9 callgsubr
          -5 callgsubr
          hintmask 0001101000000000
          430 -57 callgsubr
          90 -379 -104 callgsubr
        </CharString>
        <CharString name="p">
          -102 21 -21 179 41 269 -20 hstem
          119 72 166 67 vstem
          187 442 rmoveto
          66 17 callgsubr
          -59 -79 -3 vhcurveto
          -43 2 rlineto
          -40 264 rmoveto
          -104 callsubr
          99 -81 callsubr
          -85 14 7 132 40 2 rlineto
          128 6 62 76 77 vvcurveto
          84 -60 67 -98 vhcurveto
          endchar
        </CharString>
        <CharString name="paragraph">
          35 21 -21 642 70 hstem
          257 71 67 71 vstem
          328 642 rmoveto
          67 -642 71 642 71 hlineto
          14 0 30 7 4 -99 29 -110 -137 -155 -45 -166 -138 92 -59 115 -2 hvcurveto
          -254 vlineto
          -111 -18 -68 callgsubr
          15 vhcurveto
          167 hlineto
          endchar
        </CharString>
        <CharString name="parenleft">
          21 callsubr
          44 81 vstem
          229 -237 rmoveto
          -63 105 -41 184 162 vvcurveto
          168 41 212 104 122 vhcurveto
          -27 12 rlineto
          -131 -114 -68 -203 -197 vvcurveto
          -170 53 -175 101 -110 vhcurveto
          endchar
        </CharString>
        <CharString name="parenright">
          21 callsubr
          122 81 vstem
          18 724 rmoveto
          63 -105 41 -184 -162 vvcurveto
          -168 -41 -212 -104 -122 vhcurveto
          27 -12 rlineto
          131 114 68 203 197 vvcurveto
          170 -53 175 -101 110 vhcurveto
          endchar
        </CharString>
        <CharString name="partialdiff">
          -37 9 -21 395 50 279 -20 hstem
          29 82 288 85 vstem
          484 243 rmoveto
          201 -89 194 -263 74 vhcurveto
          -27 -75 139 -28 114 -97 38 -114 rlinecurve
          24 -36 -50 11 -38 hhcurveto
          -132 -111 -99 -137 -128 88 -81 120 155 92 117 138 hvcurveto
          -233 -206 rmoveto
          -85 -55 65 93 117 68 71 80 85 55 -66 -92 -91 -52 -97 -96 hvcurveto
          endchar
        </CharString>
        <CharString name="percent">
          195 -35 -21 44 42 266 42 260 43 44 5 callsubr
          vstem
          314 474 -54 callgsubr
          483 -302 -54 callgsubr
          -452 -216 rmoveto
          59 hlineto
          307 741 rlineto
          -59 hlineto
          endchar
        </CharString>
        <CharString name="period">
          -359 9 10 callgsubr
          vstem
          113 121 -74 callgsubr
          endchar
        </CharString>
        <CharString name="periodcentered">
          -359 194 10 callgsubr
          vstem
          113 306 -74 callgsubr
          endchar
        </CharString>
        <CharString name="perthousand">
          517 -35 -21 65 -21 631 -21 43 -20 64 5 callsubr
          38 76 132 76 vstem
          314 474 -71 callgsubr
          483 -302 -71 callgsubr
          -452 -216 rmoveto
          59 hlineto
          307 741 rlineto
          -59 hlineto
          543 -519 -71 callgsubr
          endchar
        </CharString>
        <CharString name="pi">
          -35 9 -21 33 -21 399 58 hstemhm
          105 71 164 72 hintmask 10111000
          341 195 rmoveto
          -89 17 -32 67 -86 vhcurveto
          27 19 rlineto
          -33 76 -7 0 109 vvcurveto
          207 70 vlineto
          14 0 30 7 1 -124 20 -16 hvcurveto
          -196 hlineto
          -16 -124 9 callgsubr
          71 hlineto
          hintmask 01111000
          -399 71 399 164 vlineto
          endchar
        </CharString>
        <CharString name="plus">
          116 -21 154 57 153 -20 hstem
          226 57 vstem
          -22 callgsubr
          endchar
        </CharString>
        <CharString name="plusminus">
          -12 57 71 -21 154 57 153 -20 hstemhm
          226 57 hintmask 01111000
          -22 callgsubr
          hintmask 10000000
          -318 22 callsubr
        </CharString>
        <CharString name="product">
          124 639 61 hstem
          139 75 252 76 vstem
          467 132 rmoveto
          -94 18 -33 70 -91 vhcurveto
          29 20 rlineto
          -35 80 -7 0 114 vvcurveto
          511 73 vlineto
          15 0 31 8 1 -130 21 -17 hvcurveto
          -286 hlineto
          -17 -130 -21 -1 -8 0 -31 15 hvcurveto
          74 -712 75 712 252 hlineto
          endchar
        </CharString>
        <CharString name="q">
          16 -138 -21 151 44 413 48 hstem
          -5 callgsubr
          vstem
          507 -159 rmoveto
          27 39 -158 125 rlineto
          98 31 63 81 136 vvcurveto
          -73 callgsubr
          103 -83 139 -1 vhcurveto
          -164 254 -94 callgsubr
        </CharString>
        <CharString name="question">
          -126 9 -21 633 50 hstem
          133 101 77 65 vstem
          79 502 rmoveto
          8 34 0 14 hvcurveto
          101 vlineto
          3 14 16 1 17 hhcurveto
          67 74 -27 -72 2 hvcurveto
          -15 -82 -134 -108 -2 -49 rrcurveto
          -1 1 -38 7 -60 vhcurveto
          34 50 hlineto
          66 174 107 120 vvcurveto
          91 -89 53 -118 -37 -39 -5 -10 -40 vhcurveto
          145 -561 -41 callsubr
        </CharString>
        <CharString name="questiondown">
          -126 -215 50 633 -20 hstem
          53 65 77 101 vstem
          350 -46 rmoveto
          -8 -34 15 callgsubr
          -101 vlineto
          -3 -14 -16 -1 -17 hhcurveto
          -67 -74 27 72 -2 hvcurveto
          15 82 134 108 2 49 rrcurveto
          1 -1 38 -7 60 vhcurveto
          -34 -50 hlineto
          -66 -174 -107 -120 vvcurveto
          -91 89 -53 118 37 39 5 10 40 vhcurveto
          -145 561 -41 callgsubr
        </CharString>
        <CharString name="quotedbl">
          -256 495 -21 238 -20 hstem
          50 75 -32 callsubr
          152 hmoveto
          -48 callsubr
          endchar
        </CharString>
        <CharString name="quotedblbase">
          -176 -121 -31 callsubr
          hstemhm
          60 30 callsubr
          63 30 callsubr
          hintmask 11110100
          303 121 -78 callgsubr
        </CharString>
        <CharString name="quotedblleft">
          -176 497 -21 154 -21 130 -20 hstemhm
          31 60 -60 113 63 60 -60 113 hintmask 11101100
          77 476 rmoveto
          -27 callgsubr
          vhcurveto
          hintmask 11110010
          -34 callgsubr
          176 hmoveto
          -27 callgsubr
          vhcurveto
          hintmask 11110100
          -34 callgsubr
          endchar
        </CharString>
        <CharString name="quotedblright">
          -176 488 -31 callsubr
          hstemhm
          60 30 callsubr
          63 30 callsubr
          hintmask 11110100
          303 730 -78 callgsubr
        </CharString>
        <CharString name="quoteleft">
          -352 497 -21 263 -20 hstem
          31 113 vstem
          77 476 rmoveto
          -27 callgsubr
          -5 -5 0 -1 -6 vhcurveto
          -52 callsubr
          endchar
        </CharString>
        <CharString name="quoteright">
          -352 488 -31 callsubr
          hstem
          60 113 vstem
          127 730 -88 callsubr
        </CharString>
        <CharString name="quotesinglbase">
          -63 callgsubr
        </CharString>
        <CharString name="quotesingle">
          -381 495 -21 238 -20 hstem
          -32 callsubr
          endchar
        </CharString>
        <CharString name="r">
          -67 0 -21 510 -20 hstem
          119 72 160 66 vstem
          194 206 rmoveto
          59 9 166 -236 51 15 -147 237 rlineto
          64 25 30 52 45 vvcurveto
          74 -59 62 -100 vhcurveto
          -102 -102 callgsubr
          90 -81 callsubr
          -76 14 rlineto
          9 209 rmoveto
          -9 190 59 5 rlineto
          72 -1 33 -48 -46 vvcurveto
          -48 -40 -50 -79 -3 vhcurveto
          endchar
        </CharString>
        <CharString name="radical">
          -103 -105 -21 826 -20 hstem
          261 -126 rmoveto
          188 769 rlineto
          43 4 111 15 1 vvcurveto
          7 0 30 -14 vhcurveto
          -187 hlineto
          -182 -745 -138 395 rlineto
          -82 hlineto
          169 -476 rlineto
          endchar
        </CharString>
        <CharString name="registered">
          70 217 37 492 37 hstem
          30 37 159 51 103 48 131 37 vstem
          226 645 rmoveto
          -281 vlineto
          -41 13 callsubr
          13 vhcurveto
          0 12 0 39 2 vhcurveto
          45 -2 16 -87 callgsubr
          14 callsubr
          -49 11 4 111 37 6 4 -4 4 -6 5 -8 rlinecurve
          72 -135 rlineto
          62 hlineto
          14 callsubr
          -35 8 -61 110 -7 10 -5 8 -6 5 rlinecurve
          41 19 24 36 32 vvcurveto
          53 -37 47 -68 vhcurveto
          -76 -3 -49 3 rlineto
          -13 0 -21 -5 hvcurveto
          128 -6 rmoveto
          46 -1 21 -34 -32 vvcurveto
          -34 -23 -35 -53 -1 vhcurveto
          -24 hlineto
          -5 133 rlineto
          -208 -145 -66 callsubr
        </CharString>
        <CharString name="ring">
          -271 536 -19 callsubr
          235 -57 callsubr
          endchar
        </CharString>
        <CharString name="s">
          -124 28 callgsubr
          hstem
          312 75 vstem
          -83 callgsubr
          endchar
        </CharString>
        <CharString name="scaron">
          -124 28 callgsubr
          33 -19 callsubr
          312 75 vstem
          211 583 -74 callsubr
          73 -563 rmoveto
          -82 callsubr
        </CharString>
        <CharString name="section">
          -129 -85 50 697 50 hstemhm
          84 65 -52 52 129 52 -52 65 hintmask 11010100
          97 267 rmoveto
          -51 163 -82 18 -70 vhcurveto
          -72 -2 -74 -27 -67 hhcurveto
          -17 -16 1 3 -14 hvcurveto
          101 vlineto
          14 -34 0 -8 vhcurveto
          -26 -154 rlineto
          -10 40 39 -5 37 hhcurveto
          118 89 53 91 55 -57 51 -54 45 hvcurveto
          hintmask 11101000
          79 52 19 48 50 vvcurveto
          51 -163 82 -18 70 vhcurveto
          72 2 74 27 67 hhcurveto
          17 16 -1 -3 14 -18 callgsubr
          10 -40 -39 5 -37 hhcurveto
          -118 -89 -53 -91 -55 57 -52 54 -44 hvcurveto
          hintmask 11011000
          -79 -54 -19 -47 -49 vvcurveto
          156 hmoveto
          0 -36 -17 -20 -34 -9 22 27 28 20 33 0 vhcurveto
          0 36 17 20 34 9 -22 -27 -28 -20 -33 0 vhcurveto
          endchar
        </CharString>
        <CharString name="semicolon">
          -359 -121 -31 callsubr
          204 -22 callsubr
          hstemhm
          48 101 -101 113 hintmask 00011100
          113 417 -74 callgsubr
          hintmask 11100010
          2 -296 -88 callsubr
        </CharString>
        <CharString name="seven">
          -47 -21 561 54 hstem
          213 -68 rmoveto
          256 614 -28 18 -18 -27 -342 20 rlineto
          -17 -8 -2 -12 -2 hvcurveto
          -17 22 -127 2 7 33 0 16 vhcurveto
          78 279 vlineto
          -264 -542 rlineto
          endchar
        </CharString>
        <CharString name="six">
          -12 52 262 48 323 -20 hstem
          49 85 249 85 vstem
          394 673 rmoveto
          -192 -111 -153 -135 -207 vvcurveto
          -162 106 -70 105 106 102 68 119 118 -94 57 -106 vhcurveto
          -115 hlineto
          30 83 73 93 165 106 rrcurveto
          -165 -330 rmoveto
          72 55 -27 -101 -87 -59 -47 -67 -71 -52 72 121 17 1 18 2 19 hvcurveto
          8 39 41 7 39 hhcurveto
          endchar
        </CharString>
        <CharString name="slash">
          26 callsubr
          -30 -50 8 callgsubr
        </CharString>
        <CharString name="space">
          -321 endchar
        </CharString>
        <CharString name="sterling">
          21 -21 513 50 hstemhm
          104 73 -43 64 hintmask 11010000
          62 263 rmoveto
          67 hlineto
          3 -16 2 -15 -16 vvcurveto
          -53 -20 -58 -69 -73 vhcurveto
          23 -32 rlineto
          366 21 callgsubr
          132 -1 -8 -33 0 -16 vhcurveto
          -85 vlineto
          -277 -25 -1 4 rlineto
          66 94 16 57 52 6 -1 7 6 vvcurveto
          151 37 -156 hlineto
          hintmask 11100000
          -6 33 -9 35 47 vvcurveto
          51 17 47 67 33 34 -10 -16 26 vhcurveto
          -58 callsubr
          23 -43 -61 16 -58 hhcurveto
          -89 -64 -43 -106 -41 9 -37 9 -36 hvcurveto
          -60 hlineto
          endchar
        </CharString>
        <CharString name="summation">
          -48 -73 66 646 61 hstem
          34 -22 rmoveto
          53 -51 rlineto
          391 66 -346 hlineto
          222 320 -194 326 rlineto
          178 hlineto
          17 130 21 1 8 0 31 -15 hvcurveto
          -346 hlineto
          -104 -22 rlineto
          -8 0 -31 15 vhcurveto
          44 hlineto
          191 -321 rlineto
          endchar
        </CharString>
        <CharString name="t">
          -99 21 -21 442 45 2 -20 hstemhm
          193 70 hintmask 11010000
          193 441 rmoveto
          -393 vlineto
          -81 -17 rlineto
          -8 0 -23 19 vhcurveto
          99 6 97 -81 callsubr
          -81 17 rlineto
          393 vlineto
          38 39 2 37 hhcurveto
          10 -70 rlineto
          -15 33 0 7 vhcurveto
          10 118 rlineto
          hintmask 10110000
          13 -2 -11 0 -17 hhcurveto
          -177 -4 -180 4 rlineto
          -16 -12 0 -13 -2 hvcurveto
          10 -118 rlineto
          8 32 0 15 hvcurveto
          10 70 rlineto
          endchar
        </CharString>
        <CharString name="thorn">
          -102 21 -21 109 -21 314 -20 107 -40 callgsubr
          167 67 hintmask 01101100
          190 355 rmoveto
          63 17 callgsubr
          -62 -79 vhcurveto
          -49 hlineto
          -34 269 rmoveto
          -37 -45 rlineto
          -269 67 vlineto
          48 4 rlineto
          128 11 62 71 77 vvcurveto
          84 -60 67 -98 vhcurveto
          hintmask 10011000
          -147 42 rmoveto
          -399 vlineto
          -64 -106 callsubr
        </CharString>
        <CharString name="three">
          -68 49 532 50 hstemhm
          374 53 -53 80 hintmask 11010000
          190 238 rmoveto
          118 -1 66 -61 -71 vvcurveto
          -83 -71 -41 -77 -35 -37 9 18 -33 vhcurveto
          3 73 rlineto
          13 -33 3 -6 -2 -26 28 callsubr
          -23 48 72 -16 69 hhcurveto
          106 103 65 110 70 -57 69 -102 18 hvcurveto
          hintmask 11100000
          73 27 59 57 70 vvcurveto
          106 -93 39 -89 -58 -61 -16 -23 -43 vhcurveto
          -14 2 26 6 callsubr
          26 34 10 33 hhcurveto
          67 37 -47 -51 -61 -50 -68 -111 -14 hvcurveto
          endchar
        </CharString>
        <CharString name="threequarters">
          27 callsubr
          91 43 173 -20 200 43 19 19 hstemhm
          266 65 -47 65 436 60 hintmask 0110100001000000
          -65 callgsubr
          hintmask 0001010010000000
          -762 399 -56 callsubr
          hintmask 0001010100000000
          -55 callgsubr
          hintmask 1000001000000000
          176 -520 -15 callgsubr
        </CharString>
        <CharString name="threesuperior">
          -146 177 43 353 43 hstemhm
          266 65 -47 65 hintmask 11010000
          143 384 -56 callsubr
          hintmask 11100000
          -55 callgsubr
          endchar
        </CharString>
        <CharString name="tilde">
          -140 557 64 -46 -21 30 29 callgsubr
          hintmask 10010000
          349 -21 callsubr
          hintmask 01100000
          -67 callgsubr
          hintmask 10010000
          -47 callgsubr
          endchar
        </CharString>
        <CharString name="trademark">
          242 368 -21 280 -21 57 36 1 -20 hstemhm
          140 51 177 40 243 51 hintmask 11101110
          381 349 rmoveto
          54 -2 rlineto
          15 0 19 6 hvcurveto
          -47 11 11 228 102 -240 rlineto
          18 hlineto
          112 246 10 -234 -47 13 callsubr
          15 vhcurveto
          56 2 57 -2 rlineto
          14 callsubr
          -41 11 -16 280 40 10 rlineto
          hintmask 11011110
          7 0 20 -14 vhcurveto
          -80 -2 -110 -239 -97 239 -83 2 rlineto
          -14 0 -20 -7 hvcurveto
          hintmask 11101110
          40 -10 -15 -280 -42 13 callsubr
          15 vhcurveto
          -169 350 rmoveto
          hintmask 11011110
          -119 3 rlineto
          -11 -11 0 -9 0 0 -1 6 -84 hvcurveto
          6 26 0 12 2 hvcurveto
          7 46 70 -2 -2 -139 2 -140 -55 13 callsubr
          14 vhcurveto
          0 26 0 41 2 vhcurveto
          45 -2 19 -87 callgsubr
          14 callsubr
          -55 11 2 140 -2 139 71 2 6 -46 rlineto
          -12 1 27 0 6 hhcurveto
          6 84 0 1 0 vvcurveto
          9 -10 0 -12 vhcurveto
          endchar
        </CharString>
        <CharString name="two">
          21 -21 513 50 hstem
          343 84 vstem
          427 415 rmoveto
          110 -98 38 -94 -60 -65 -16 -23 -40 vhcurveto
          -14 1 27 6 callsubr
          28 36 10 34 hhcurveto
          57 53 -27 -76 -93 -71 -68 -59 -53 hvcurveto
          -184 -164 23 -32 rlineto
          386 21 callgsubr
          127 -1 -8 -33 0 -16 vhcurveto
          -78 vlineto
          -287 -25 -1 4 115 90 rlineto
          105 82 97 82 118 vvcurveto
          endchar
        </CharString>
        <CharString name="twosuperior">
          -146 185 45 343 43 hstem
          271 67 vstem
          338 500 -78 callsubr
          endchar
        </CharString>
        <CharString name="u">
          -8 callgsubr
          hstem
          14 callgsubr
          vstem
          220 489 rmoveto
          0 -21 0 -62 -3 vhcurveto
          -70 3 -5 -87 callgsubr
          -20 callsubr
          54 -14 rlineto
          -288 vlineto
          -116 78 -47 123 120 72 65 98 vhcurveto
          288 vlineto
          47 15 rlineto
          8 0 23 -20 vhcurveto
          0 -8 -1 -46 -2 vhcurveto
          -80 3 rlineto
          -16 -3 -16 -15 hvcurveto
          70 -15 rlineto
          -290 vlineto
          -58 -42 -54 -93 -93 -38 46 65 vhcurveto
          291 vlineto
          69 15 rlineto
          6 0 25 -19 vhcurveto
          endchar
        </CharString>
        <CharString name="uacute">
          -11 callgsubr
          212 -92 callsubr
          hintmask 11001100
          19 -48 rmoveto
          0 -21 0 -62 -3 vhcurveto
          -70 3 -5 -87 callgsubr
          -20 callsubr
          54 -14 rlineto
          -288 vlineto
          -116 78 -47 123 120 72 65 98 vhcurveto
          288 vlineto
          47 15 rlineto
          8 0 23 -20 vhcurveto
          0 -8 -1 -46 -2 vhcurveto
          -80 3 rlineto
          -16 -3 -16 -15 hvcurveto
          70 -15 rlineto
          -290 vlineto
          -58 -42 -54 -93 -93 -38 46 65 vhcurveto
          291 vlineto
          69 15 rlineto
          6 0 25 -19 vhcurveto
          endchar
        </CharString>
        <CharString name="ucircumflex">
          -8 callgsubr
          61 -19 callsubr
          14 callgsubr
          vstem
          306 -85 callgsubr
          11 -20 rmoveto
          0 -21 0 -62 -3 vhcurveto
          -70 3 -5 -87 callgsubr
          -20 callsubr
          54 -14 rlineto
          -288 vlineto
          -116 78 -47 123 120 72 65 98 vhcurveto
          288 vlineto
          47 15 rlineto
          8 0 23 -20 vhcurveto
          0 -8 -1 -46 -2 vhcurveto
          -80 3 rlineto
          -16 -3 -16 -15 hvcurveto
          70 -15 rlineto
          -290 vlineto
          -58 -42 -54 -93 -93 -38 46 65 vhcurveto
          291 vlineto
          69 15 rlineto
          6 0 25 -19 vhcurveto
          endchar
        </CharString>
        <CharString name="udieresis">
          -8 callgsubr
          96 -40 callsubr
          99 71 18 23 callgsubr
          13 56 hintmask 00110110
          244 659 rmoveto
          -16 -33 -7 0 hvcurveto
          -1 -3 -6 -26 -27 vvcurveto
          -26 6 -26 26 17 32 9 0 vhcurveto
          1 3 5 25 25 vvcurveto
          -91 callsubr
          hintmask 11001001
          -172 -170 rmoveto
          0 -21 0 -62 -3 vhcurveto
          -70 3 -5 -87 callgsubr
          -20 callsubr
          54 -14 rlineto
          -288 vlineto
          -116 78 -47 123 120 72 65 98 vhcurveto
          288 vlineto
          47 15 rlineto
          8 0 23 -20 vhcurveto
          0 -8 -1 -46 -2 vhcurveto
          -80 3 rlineto
          -16 -3 -16 -15 hvcurveto
          70 -15 rlineto
          -290 vlineto
          -58 -42 -54 -93 -93 -38 46 65 vhcurveto
          291 vlineto
          69 15 rlineto
          6 0 25 -19 vhcurveto
          endchar
        </CharString>
        <CharString name="ugrave">
          -11 callgsubr
          403 -88 callgsubr
          hintmask 11001100
          -172 -29 rmoveto
          0 -21 0 -62 -3 vhcurveto
          -70 3 -5 -87 callgsubr
          -20 callsubr
          54 -14 rlineto
          -288 vlineto
          -116 78 -47 123 120 72 65 98 vhcurveto
          288 vlineto
          47 15 rlineto
          8 0 23 -20 vhcurveto
          0 -8 -1 -46 -2 vhcurveto
          -80 3 rlineto
          -16 -3 -16 -15 hvcurveto
          70 -15 rlineto
          -290 vlineto
          -58 -42 -54 -93 -93 -38 46 65 vhcurveto
          291 vlineto
          69 15 rlineto
          6 0 25 -19 vhcurveto
          endchar
        </CharString>
        <CharString name="underscore">
          -52 -69 57 hstem
          40 -69 rmoveto
          424 57 -424 hlineto
          endchar
        </CharString>
        <CharString name="v">
          -41 1 callsubr
          -14 vhcurveto
          -78 -3 rlineto
          -64 3 -9 -87 callgsubr
          -19 19 callsubr
          49 -16 165 -443 rlineto
          62 hlineto
          160 444 49 29 callsubr
          21 -18 2 vhcurveto
          -57 -3 -79 -17 callsubr
          18 -4 23 -5 19 -5 -40 -121 -42 -119 -40 -120 -124 360 rcurveline
          endchar
        </CharString>
        <CharString name="w">
          160 1 callsubr
          -15 vhcurveto
          -78 -3 -73 30 callgsubr
          -17 -13 hvcurveto
          48 -16 134 -443 rlineto
          67 hlineto
          31 95 31 100 32 94 96 -289 rcurveline
          67 hlineto
          132 443 48 29 callsubr
          22 -17 2 vhcurveto
          -57 -3 -79 3 rlineto
          -16 -3 -16 -15 hvcurveto
          19 -5 22 -4 20 -5 -99 -349 rcurveline
          -113 359 rlineto
          -24 hlineto
          -117 -359 -33 124 -30 103 -33 122 rlinecurve
          endchar
        </CharString>
        <CharString name="x">
          10 -9 callsubr
          335 31 rmoveto
          -25 callgsubr
          85 6 80 -6 rlineto
          18 0 23 8 hvcurveto
          -15 5 -32 5 -16 5 -50 70 -50 67 -49 70 48 63 48 65 49 62 49 16 rcurveline
          7 0 21 -17 2 vhcurveto
          -57 -3 -83 -17 callsubr
          17 -4 20 -4 19 -5 -37 -51 -34 -44 -37 -51 -37 52 -32 43 -36 50 53 14 rcurveline
          15 -3 16 -15 vhcurveto
          -84 -3 -71 3 rlineto
          -12 -6 -11 -20 hvcurveto
          57 -15 140 -196 -156 -201 -59 -16 rlineto
          -7 -61 callsubr
          67 6 83 -6 rlineto
          -36 callsubr
          -17 4 -21 4 -18 5 42 56 33 47 42 56 40 -55 35 -51 39 -53 rrcurveto
          endchar
        </CharString>
        <CharString name="y">
          -88 -9 callsubr
          205 70 vstem
          275 46 -97 callsubr
        </CharString>
        <CharString name="yacute">
          -88 -54 callsubr
          70 -49 callgsubr
          205 70 hintmask 00110000
          167 -92 callsubr
          hintmask 11001000
          119 -491 -97 callsubr
        </CharString>
        <CharString name="ydieresis">
          -88 -54 callsubr
          96 -40 callsubr
          129 87 -11 70 2 87 hintmask 00111010
          185 659 rmoveto
          -16 -33 -7 0 hvcurveto
          -1 -3 -6 -26 -27 vvcurveto
          -26 6 -26 26 17 32 9 0 vhcurveto
          1 3 5 25 25 vvcurveto
          -91 callsubr
          hintmask 11000100
          -58 -613 -97 callsubr
        </CharString>
        <CharString name="yen">
          21 -21 551 -20 hstem
          217 78 vstem
          416 216 rmoveto
          -121 7 hlineto
          20 40 rlineto
          101 37 -82 hlineto
          103 199 47 22 rlineto
          7 -2 23 -12 vhcurveto
          -62 -4 -68 4 rlineto
          -14 0 -24 -6 hvcurveto
          62 -20 -120 -239 -122 239 59 20 rlineto
          6 -2 24 -12 vhcurveto
          -73 -4 -78 4 rlineto
          -11 -3 -44 callsubr
          47 -22 103 -199 rlineto
          -76 -37 95 hlineto
          22 -41 rlineto
          -6 -117 -37 117 -127 vlineto
          -105 -80 callsubr
          38 -50 callsubr
          -105 22 rlineto
          127 121 vlineto
          endchar
        </CharString>
        <CharString name="z">
          1 callgsubr
          hstemhm
          hintmask 10000100
          372 49 5 callgsubr
          hintmask 10001000
          -10 callsubr
          hintmask 01010000
          4 callsubr
          hintmask 00110000
          -14 callgsubr
        </CharString>
        <CharString name="zcaron">
          1 callgsubr
          52 -5 callsubr
          hintmask 10000111
          255 583 -74 callsubr
          14 -636 5 callgsubr
          hintmask 10001011
          -10 callsubr
          hintmask 01010011
          4 callsubr
          hintmask 00110011
          -14 callgsubr
        </CharString>
        <CharString name="zero">
          -12 49 476 50 hstem
          29 83 286 83 vstem
          481 285 rmoveto
          186 -101 92 -121 -127 -103 -100 -186 -195 94 -94 124 136 98 96 201 vhcurveto
          -83 -10 rmoveto
          -162 -50 -76 -93 -93 -50 76 162 162 50 76 93 93 50 -76 -162 vhcurveto
          endchar
        </CharString>
      <CharString index="0">
        -16 -33 -7 0 hvcurveto
        -1 -3 -6 -26 -27 vvcurveto
        -26 6 -26 26 17 32 9 0 vhcurveto
        1 3 5 25 25 vvcurveto
        return
      </CharString>
      <CharString index="1">
        363 rmoveto
        -89 callgsubr
        185 200 144 122 253 vhcurveto
        -579 -11 -101 callsubr
        return
      </CharString>
      <CharString index="2">
        697 -106 callgsubr
        return
      </CharString>
      <CharString index="3">
        rmoveto
        -73 callgsubr
        104 -84 140 150 108 85 176 vhcurveto
        -424 -7 -94 callgsubr
      </CharString>
      <CharString index="4">
        -42 callgsubr
        -340 -4 rlineto
        -93 callsubr
        105 8 344 -70 callsubr
        -35 0 -14 hvcurveto
        return
      </CharString>
      <CharString index="5">
        -3 rlineto
        -104 callsubr
        return
      </CharString>
      <CharString index="6">
        rmoveto
        0 -97 66 -95 77 vhcurveto
        -5 -6 -20 -41 -20 vvcurveto
        -5 1 -5 4 -2 vhcurveto
        67 -43 98 -30 36 -10 rrcurveto
        return
      </CharString>
      <CharString index="7">
        -37 callgsubr
        3 -30 callgsubr
        -10 -94 callsubr
        65 -22 194 -371 rlineto
        -225 vlineto
        -105 -80 callsubr
        38 -50 callsubr
        -105 22 rlineto
        227 vlineto
        178 369 -69 callsubr
        82 -22 -143 -327 -160 327 rlineto
        return
      </CharString>
      <CharString index="8">
        rmoveto
        96 -102 26 17 -44 63 -33 53 -23 43 rlinecurve
        -45 hlineto
        -23 -43 -33 -53 -44 -63 26 -17 rcurveline
        return
      </CharString>
      <CharString index="9">
        125 -103 callsubr
        return
      </CharString>
      <CharString index="10">
        271 700 rmoveto
        0 -22 -50 callgsubr
        -7 -26 callsubr
        74 -21 rlineto
        -430 vlineto
        -163 103 -67 163 159 94 94 136 vhcurveto
        430 vlineto
        65 -70 callgsubr
        -6 -1 -72 -3 vhcurveto
        -109 4 rlineto
        -12 callgsubr
        -432 vlineto
        -89 -60 -84 -133 -135 -55 72 100 vhcurveto
        433 vlineto
        95 22 rlineto
        6 0 24 -16 vhcurveto
        return
      </CharString>
      <CharString index="11">
        -5 298 86 -70 callgsubr
        -10 -50 callgsubr
        -18 -94 callsubr
        return
      </CharString>
      <CharString index="12">
        29 callsubr
        23 -17 vhcurveto
        0 -19 -87 callsubr
        return
      </CharString>
      <CharString index="13">
        rmoveto
        85 29 71 42 32 vhcurveto
        8 28 38 7 36 hhcurveto
        98 75 -67 -136 -141 -75 -69 -98 -98 -75 69 141 hvcurveto
        endchar
      </CharString>
      <CharString index="14">
        -17 callgsubr
        hintmask 11001100
        -105 callgsubr
        hintmask 00110000
        return
      </CharString>
      <CharString index="15">
        -17 -57 rlineto
        -192 hlineto
        8 173 186 11 rlineto
        41 -185 vlineto
        -9 166 183 -77 callsubr
        return
      </CharString>
      <CharString index="16">
        -7 24 callgsubr
        -8 -34 -31 vvcurveto
        -31 7 -30 30 return
      </CharString>
      <CharString index="17">
        -35 callgsubr
        -242 -102 callgsubr
        rlineto
        endchar
      </CharString>
      <CharString index="18">
        -60 callsubr
        -83 callsubr
        return
      </CharString>
      <CharString index="19">
        537 -101 callgsubr
        return
      </CharString>
      <CharString index="20">
        0 0 vvcurveto
        return
      </CharString>
      <CharString index="21">
        -596 vlineto
        -84 -95 callsubr
        return
      </CharString>
      <CharString index="22">
        611 -99 callgsubr
        return
      </CharString>
      <CharString index="23">
        170 rmoveto
        57 -40 65 -78 45 vhcurveto
        -172 98 rlineto
        -38 22 -37 33 57 vvcurveto
        12 1 14 4 14 vhcurveto
        55 34 58 20 56 hhcurveto
        42 41 -12 -13 28 -18 callgsubr
        21 -56 -59 15 -58 hhcurveto
        -148 -81 -90 -94 -60 33 -61 69 -39 hvcurveto
        177 -101 rlineto
        56 -32 15 -45 -33 vvcurveto
        -65 -43 -56 -100 -51 -62 15 27 -42 vhcurveto
        111 vlineto
        12 -35 0 -8 -1 -17 -122 -43 -5 vhcurveto
        -33 77 69 -15 67 hhcurveto
        134 102 63 119 hvcurveto
        return
      </CharString>
      <CharString index="24">
        387 122 rmoveto
        -105 callsubr
        return
      </CharString>
      <CharString index="25">
        -20 hstemhm
        114 78 383 58 hintmask 11001100
        -97 callgsubr
        hintmask 00110000
        return
      </CharString>
      <CharString index="26">
        -101 callgsubr
        endchar
      </CharString>
      <CharString index="27">
        -35 callgsubr
        -220 -102 callgsubr
        99 -81 callsubr
        -85 14 7 167 rlineto
        return
      </CharString>
      <CharString index="28">
        -18 callsubr
        71 -21 162 -93 callgsubr
        return
      </CharString>
      <CharString index="29">
        rmoveto
        0 callgsubr
        hintmask 11110010
        -34 callsubr
        -176 hmoveto
        0 callgsubr
        hintmask 11101100
        -34 callsubr
        endchar
      </CharString>
      <CharString index="30">
        rmoveto
        354 vlineto
        14 -8 9 -8 3 vhcurveto
        -14 -162 -40 -1 -6 11 -33 15 hvcurveto
        103 26 rlineto
        -326 vlineto
        -119 -20 rlineto
        -6 0 -25 17 vhcurveto
        125 3 114 -3 rlineto
        18 0 25 6 hvcurveto
        return
      </CharString>
      <CharString index="31">
        2 hvcurveto
        6 111 rlineto
        -28 -10 -2 -15 -4 hvcurveto
        return
      </CharString>
      <CharString index="32">
        -99 callgsubr
        endchar
      </CharString>
      <CharString index="33">
        rmoveto
        -98 callsubr
        return
      </CharString>
      <CharString index="34">
        164 -112 80 -135 -59 callsubr
        return
      </CharString>
      <CharString index="35">
        -8 -61 callsubr
        return
      </CharString>
      <CharString index="36">
        rmoveto
        112 -64 55 -76 -59 callgsubr
        vhcurveto
        -67 callsubr
        return
      </CharString>
      <CharString index="37">
        3 callsubr
        23 -15 vhcurveto
        0 return
      </CharString>
      <CharString index="38">
        -102 callsubr
        endchar
      </CharString>
      <CharString index="39">
        rlineto
        -7 0 -23 return
      </CharString>
      <CharString index="40">
        -47 -41 27 -48 hhcurveto
        -33 -34 -16 -59 -34 hvcurveto
        17 -19 rlineto
        19 20 20 11 22 hhcurveto
        return
      </CharString>
      <CharString index="41">
        hhcurveto
        140 106 -101 -205 -212 -106 return
      </CharString>
      <CharString index="42">
        845 45 rmoveto
        47 69 40 -69 135 vlineto
        13 0 8 -9 5 vhcurveto
        -14 -37 -7 0 hvcurveto
        -154 -142 vlineto
        131 289 -60 18 rlineto
        -121 -300 -10 -28 -3 vvcurveto
        -13 10 -3 14 vhcurveto
        178 -47 hlineto
        -73 -14 rlineto
        -6 0 -25 17 vhcurveto
        85 3 74 -3 rlineto
        17 1 0 24 6 vvcurveto
        return
      </CharString>
      <CharString index="43">
        -86 callsubr
        83 6 return
      </CharString>
      <CharString index="44">
        -359 -121 -31 callsubr
        hstem
        48 113 vstem
        115 121 -88 callsubr
      </CharString>
      <CharString index="45">
        555 -61 callgsubr
        return
      </CharString>
      <CharString index="46">
        rmoveto
        -14 35 -35 callsubr
        24 149 rlineto
        return
      </CharString>
      <CharString index="47">
        -72 callgsubr
        83 6 return
      </CharString>
      <CharString index="48">
        -79 -65 -60 -112 -117 59 -56 78 85 62 58 120 return
      </CharString>
      <CharString index="49">
        373 223 rmoveto
        41 -178 vlineto
        -9 176 161 -77 callsubr
        return
      </CharString>
      <CharString index="50">
        -21 callsubr
        hintmask 0001010000000000
        -67 callgsubr
        hintmask 0010001000000000
        -47 callgsubr
        hintmask 1100000110000000
        return
      </CharString>
      <CharString index="51">
        80 -70 callgsubr
        -12 0 -93 -4 vhcurveto
        -93 callsubr
        0 9 -62 callsubr
        return
      </CharString>
      <CharString index="52">
        40 22 32 37 44 vvcurveto
        76 -70 28 -65 -42 -46 -11 -17 -35 vhcurveto
        2 -8 18 -80 0 vvcurveto
        7 32 5 10 hvcurveto
        -2 44 rlineto
        8 17 23 6 23 hhcurveto
        47 26 -26 -36 -45 -40 -38 -89 -10 hvcurveto
        return
      </CharString>
      <CharString index="53">
        rmoveto
        112 -2 -62 55 -76 hhcurveto
        -59 callgsubr
        hvcurveto
        -67 callsubr
        return
      </CharString>
      <CharString index="54">
        rmoveto
        53 -2 23 -29 -28 vvcurveto
        -25 -19 -24 -33 -19 -21 7 12 -15 vhcurveto
        -19 -30 rlineto
        -16 18 29 -15 39 hhcurveto
        63 40 47 45 39 -27 38 -63 8 hvcurveto
        17 56 rlineto
        -32 hlineto
        endchar
      </CharString>
      <CharString index="55">
        rmoveto
        188 -203 29 24 -130 193 130 193 -29 24 -188 -203 rlineto
        return
      </CharString>
      <CharString index="56">
        4 -46 callsubr
        2 -20 return
      </CharString>
      <CharString index="57">
        0 -93 -4 vhcurveto
        -94 4 return
      </CharString>
      <CharString index="58">
        -42 callsubr
        hstemhm
        return
      </CharString>
      <CharString index="59">
        rmoveto
        -5 -298 20 callgsubr
        -86 -95 callsubr
        112 8 298 -70 callsubr
        -31 -1 -13 -4 hvcurveto
        return
      </CharString>
      <CharString index="60">
        47 41 -27 48 hhcurveto
        33 34 16 59 34 hvcurveto
        return
      </CharString>
      <CharString index="61">
        21 -33 callsubr
        return
      </CharString>
      <CharString index="62">
        -35 21 -21 151 47 291 -20 return
      </CharString>
      <CharString index="63">
        -37 callsubr
        237 -37 callgsubr
        1 -30 callgsubr
        -13 -94 callsubr
        65 -22 return
      </CharString>
      <CharString index="64">
        -177 -90 -22 rlineto
        -8 0 -22 15 vhcurveto
        return
      </CharString>
      <CharString index="65">
        10 -1 -13 0 -18 hhcurveto
        return
      </CharString>
      <CharString index="66">
        rmoveto
        21 36 6 24 callgsubr
        8 27 25 vvcurveto
        25 -7 24 -30 -22 -35 -8 0 vhcurveto
        0 -7 -26 -23 vvcurveto
        -27 9 -23 27 vhcurveto
        endchar
      </CharString>
      <CharString index="67">
        -36 callgsubr
        71 return
      </CharString>
      <CharString index="68">
        -21 489 -20 return
      </CharString>
      <CharString index="69">
        134 648 rmoveto
        -86 callgsubr
        return
      </CharString>
      <CharString index="70">
        670 rmoveto
        8 0 22 -15 vhcurveto
        0 return
      </CharString>
      <CharString index="71">
        -20 hstemhm
        119 return
      </CharString>
      <CharString index="72">
        14 -12 0 -18 vhcurveto
        return
      </CharString>
      <CharString index="73">
        -5 -5 0 -1 -6 hvcurveto
        -52 callsubr
        return
      </CharString>
      <CharString index="74">
        437 147 rmoveto
        -299 130 299 131 rlineto
        60 vlineto
        -364 -162 rlineto
        -57 vlineto
        364 -162 rlineto
        return
      </CharString>
      <CharString index="75">
        -21 176 -20 return
      </CharString>
      <CharString index="76">
        73 408 rmoveto
        299 -131 -299 -130 rlineto
        -60 vlineto
        364 162 rlineto
        57 vlineto
        -364 162 rlineto
        return
      </CharString>
      <CharString index="77">
        0 -108 -4 vhcurveto
        -87 4 return
      </CharString>
      <CharString index="78">
        137 -10 rlineto
        150 108 81 176 185 -133 59 -136 hvcurveto
        -41 -3 -45 -5 -41 -3 rrcurveto
        return
      </CharString>
      <CharString index="79">
        -8 139 rlineto
        131 49 hlineto
        -135 16 -8 139 rlineto
        -49 hlineto
        -8 -139 -136 -16 rlineto
        endchar
      </CharString>
      <CharString index="80">
        29 30 7 24 callgsubr
        8 34 31 vvcurveto
        31 -7 30 -30 return
      </CharString>
      <CharString index="81">
        -4 12 -89 callsubr
        return
      </CharString>
      <CharString index="82">
        -9 0 -22 18 vhcurveto
        return
      </CharString>
      <CharString index="83">
        -74 callsubr
        endchar
      </CharString>
      <CharString index="84">
        rlineto
        7 0 return
      </CharString>
      <CharString index="85">
        73 249 rmoveto
        153 -154 57 154 154 57 -154 153 -57 -153 -153 hlineto
        return
      </CharString>
      <CharString index="86">
        104 21 -21 222 51 427 -20 return
      </CharString>
      <CharString index="87">
        -47 callsubr
        endchar
      </CharString>
      <CharString index="88">
        5 5 0 1 6 return
      </CharString>
      <CharString index="89">
        hvcurveto
        -101 vlineto
        -14 34 -35 callsubr
        26 154 rlineto
        return
      </CharString>
      <CharString index="90">
        -20 hstemhm
        30 88 491 88 return
      </CharString>
      <CharString index="91">
        16 -8 44 413 48 return
      </CharString>
      <CharString index="92">
        rmoveto
        51 hlineto
        315 756 rlineto
        -51 hlineto
        endchar
      </CharString>
      <CharString index="93">
        323 -9 rlineto
        19 8 2 13 hvcurveto
        -18 109 rlineto
        -8 -33 0 -15 hvcurveto
        endchar
      </CharString>
      <CharString index="94">
        -56 -61 25 -60 hhcurveto
        -37 -36 -11 -33 -30 hvcurveto
        return
      </CharString>
      <CharString index="95">
        -16 0 -24 -6 hvcurveto
        95 -22 rlineto
        return
      </CharString>
      <CharString index="96">
        -8 callgsubr
        70 -49 callgsubr
        14 callgsubr
        hintmask 00110000
        return
      </CharString>
      <CharString index="97">
        -30 callsubr
        70 -21 162 -40 callgsubr
        hintmask 00110000
        return
      </CharString>
      <CharString index="98">
        64 -46 -21 30 37 -37 29 callgsubr
        return
      </CharString>
      <CharString index="99">
        23 -8 49 448 -20 return
      </CharString>
      <CharString index="100">
        -286 -187 -21 881 -20 hstem
        100 70 vstem
        100 -208 rmoveto
        70 return
      </CharString>
      <CharString index="101">
        2 callsubr
        endchar
      </CharString>
      <CharString index="102">
        35 78 346 78 return
      </CharString>
      <CharString index="103">
        16 1 8 0 26 -17 hvcurveto
        -155 hlineto
        -6 -59 -8 -55 -54 vvcurveto
        return
      </CharString>
      <CharString index="104">
        -83 callsubr
        185 return
      </CharString>
      <CharString index="105">
        0 -25 -7 hvcurveto
        return
      </CharString>
      <CharString index="106">
        vvcurveto
        -54 6 -55 8 -59 vhcurveto
        155 hlineto
        17 0 26 8 1 return
      </CharString>
      <CharString index="107">
        -73 callsubr
        vhcurveto
        return
      </CharString>
      <CharString index="108">
        -77 4 45 -37 -21 30 -21 437 46 6 -20 29 -20 return
      </CharString>
      <CharString index="109">
        -4 26 40 -4 41 hhcurveto
        61 65 6 17 37 hvcurveto
        endchar
      </CharString>
      <CharString index="110">
        31 -21 434 -20 hstem
        return
      </CharString>
      <CharString index="111">
        0 87 4 vhcurveto
        return
      </CharString>
      <CharString index="112">
        rmoveto
        -235 hlineto
        312 431 -24 18 -32 -20 rlineto
        return
      </CharString>
      <CharString index="113">
        2 53 -46 -21 33 -21 642 47 11 -20 32 -20 return
      </CharString>
      <CharString index="114">
        103 vvcurveto
        113 -77 90 -130 vhcurveto
        -158 -4 return
      </CharString>
      <CharString index="115">
        rmoveto
        54 hlineto
        333 800 rlineto
        -54 hlineto
        endchar
      </CharString>
      <CharString index="116">
        -20 -1 -7 0 -30 14 hvcurveto
        return
      </CharString>
      <CharString index="117">
        18 callsubr
        101 return
      </CharString>
      <CharString index="118">
        hlineto
        59 167 rlineto
        -57 hlineto
        -59 -167 rlineto
        return
      </CharString>
      <CharString index="119">
        rmoveto
        106 47 -80 -80 -82 -50 -89 -121 hvcurveto
        return
      </CharString>
      <CharString index="120">
        vstem
        15 437 rmoveto
        132 hlineto
        -8 -139 return
      </CharString>
      <CharString index="121">
        99 71 266 56 return
      </CharString>
      <CharString index="122">
        0 -14 hvcurveto
        return
      </CharString>
      <CharString index="123">
        54 -12 -20 hstemhm
        134 79 407 88 return
      </CharString>
      <CharString index="124">
        7 rlineto
        72 -1 32 -54 -55 vvcurveto
        -57 -39 return
      </CharString>
      <CharString index="125">
        rlineto
        -7 -35 15 callgsubr
        return
      </CharString>
      <CharString index="126">
        -3 -83 30 callgsubr
        return
      </CharString>
      <CharString index="127">
        5 -298 return
      </CharString>
      <CharString index="128">
        hlineto
        17 5 5 9 2 hvcurveto
        17 -22 return
      </CharString>
      <CharString index="129">
        -309 -233 51 862 51 hstem
        return
      </CharString>
      <CharString index="130">
        87 61 87 return
      </CharString>
      <CharString index="131">
        0 hvcurveto
        0 return
      </CharString>
      <CharString index="132">
        31 hvcurveto
        8 28 38 7 35 hhcurveto
        return
      </CharString>
      <CharString index="133">
        -190 -24 -21 686 -20 hstem
        return
      </CharString>
      <CharString index="134">
        vlineto
        17 -10 10 -8 4 vhcurveto
        -17 return
      </CharString>
      <CharString index="135">
        -8 46 412 47 return
      </CharString>
      <CharString index="136">
        64 3 -20 hstemhm
        return
      </CharString>
      <CharString index="137">
        3 rlineto
        -15 -3 return
      </CharString>
</ttFont>
